<svg xmlns="http://www.w3.org/2000/svg" xmlns:xlink="http://www.w3.org/1999/xlink" width="741" height="741" viewBox="0 0 741 741">
  <defs>
    <linearGradient id="a" x1="365" y1="500" x2="635" y2="500" gradientTransform="translate(285.85406 -331.52213) rotate(38.12478)" gradientUnits="userSpaceOnUse">
      <stop offset="0" stop-color="#cce0f4"/>
      <stop offset="0.06405" stop-color="#c3dcf2"/>
      <stop offset="0.17063" stop-color="#a9d2ee"/>
      <stop offset="0.30655" stop-color="#80c2e7"/>
      <stop offset="0.46487" stop-color="#47acde"/>
      <stop offset="0.56742" stop-color="#1e9cd7"/>
      <stop offset="0.86517" stop-color="#0075be"/>
      <stop offset="0.99438" stop-color="#005b97"/>
    </linearGradient>
  </defs>
  <title>Coexcus-Logo</title>
  <circle cx="370.5" cy="370.5" r="370" style="fill: #1d52c1;stroke: #000;stroke-miterlimit: 5"/>
  <g>
    <path d="M455.2832,823.374c-2.17773,11.19434-12.16113,18.16211-23.626,15.93262A19.32588,19.32588,0,0,1,417.06836,827.332l8.34424-2.88867a10.01645,10.01645,0,0,0,7.89306,6.38574c6.7378,1.31055,11.96241-2.35351,13.28321-9.14453,1.32177-6.792-2.14795-12.14844-8.88526-13.459-3.8584-.751-7.51123.34277-9.71142,2.96093l-6.65332-5.80664a19.18929,19.18929,0,0,1,18.01318-5.63183C450.81738,801.97852,457.46094,812.18164,455.2832,823.374Z" transform="translate(-129.5 -129.5)" style="fill: #fff"/>
    <path d="M403.21387,797.92871a7.23014,7.23014,0,0,0-5.70362.37891l-5.15771-5.667c3.7334-2.75489,8.22559-3.34864,13.2334-1.74122,9.01416,2.89258,12.65576,10.74707,10.13574,18.60157-2.521,7.85449-10.15967,12.08984-18.48779,9.416-7.6958-2.46972-11.478-10.2539-8.92334-18.21386a16.13614,16.13614,0,0,1,1.33154-3.06055l18.71338,6.00586C408.2334,800.58594,406.11328,798.8584,403.21387,797.92871Zm-7.92823,8.03711a5.69851,5.69851,0,0,0,4.25049,5.957c3.00489.96485,5.48145.13184,7.08252-2.31933Z" transform="translate(-129.5 -129.5)" style="fill: #fff"/>
    <path d="M356.71,790.45215l6.88525-15.53711,7.59131,3.36523-6.39209,14.42286c-1.39062,3.13769-.06738,5.47949,2.36182,6.55566,2.78369,1.2334,5.42383.4668,7.0166-3.126l6.12305-13.81543,7.59082,3.36426-11.21387,25.30274-7.59082-3.36426,1.0542-2.37793c-2.19678,1.2666-5.26514,1.36035-8.606-.12012C356.41943,802.85645,353.68213,797.28418,356.71,790.45215Z" transform="translate(-129.5 -129.5)" style="fill: #fff"/>
    <path d="M339.63232,784.18555l4.74805-8.57325c1.15381-2.08105-.53125-3.26855-3.835-4.84472l3.64844-6.58789c10.02881,4.29,11.207,8.67676,7.45117,15.457l-4.74756,8.57226,3.874,2.14649-3.86279,6.97363-3.87451-2.14551-2.54883,4.59961-8.47168-1.84277,3.75488-6.78125-4.98779-2.7627,3.86328-6.9746Z" transform="translate(-129.5 -129.5)" style="fill: #fff"/>
    <path d="M310.27881,776.01855l5.11523-7.89843c2.58008,2.33008,7.42139,3.81738,10.39991-.78223l6.80126-10.501,6.96924,4.51465-15.04687,23.22949-6.96875-4.51367,2.67822-4.13476C317.28125,778.44336,313.20508,777.91406,310.27881,776.01855Z" transform="translate(-129.5 -129.5)" style="fill: #fff"/>
    <path d="M283.42529,754.96289l17.019-21.82812,6.54834,5.10546-1.6001,2.05176a10.40108,10.40108,0,0,1,8.58154,2.40918c5.71875,4.459,6.51953,13.15528,1.44727,19.66113-5.0708,6.50391-13.70069,7.84864-19.41944,3.38965a10.39769,10.39769,0,0,1-4.42871-7.73535l-1.6001,2.05176Zm15.05762-5.80762c-2.55273,3.27344-1.96924,7.02735,1.04248,9.376,3.01221,2.34863,6.79492,1.999,9.34815-1.27637,2.55273-3.27343,1.96923-7.02636-1.04249-9.375C304.81885,745.53125,301.03564,745.88086,298.48291,749.15527Z" transform="translate(-129.5 -129.5)" style="fill: #fff"/>
    <path d="M268.564,758.53516l-6.1206-5.61328,27.31641-29.78418,6.1206,5.6123Z" transform="translate(-129.5 -129.5)" style="fill: #fff"/>
    <path d="M252.81445,695.84473l6.45508-5.57032,15.91406,18.44239-29.33984,25.31836-15.73389-18.23243,6.45508-5.57031,9.94629,11.52735,4.86231-4.19629L242.33105,707.085l6.3711-5.49707,9.04248,10.47754,5.19726-4.48535Z" transform="translate(-129.5 -129.5)" style="fill: #fff"/>
    <path d="M246.58057,672.63672l-2.9917,8.42187,8.938-.01757,5.499,7.77246-17.2002.03222-5.58447,15.68164-5.499-7.7705,2.82177-7.89746-8.38427.0332-5.499-7.77149,16.64649-.04785,5.75439-16.208Z" transform="translate(-129.5 -129.5)" style="fill: #fff"/>
    <path d="M229.1875,671.79688a14.63926,14.63926,0,0,1-20.15234-19.72852l7.27832,4.15918a5.73179,5.73179,0,0,0,.01367,6.20019,6.42346,6.42346,0,0,0,11.10742-6.44628,5.67524,5.67524,0,0,0-5.37549-3.0879l-.04931-8.35546a14.13123,14.13123,0,0,1,12.45507,7.23632A14.34,14.34,0,0,1,229.1875,671.79688Z" transform="translate(-129.5 -129.5)" style="fill: #fff"/>
    <path d="M195.00928,654.21094a4.98191,4.98191,0,1,1,2.29-6.66211A5.03448,5.03448,0,0,1,195.00928,654.21094Zm6.2998-4L197.6665,642.75l24.86866-12.14551,3.64257,7.46094Z" transform="translate(-129.5 -129.5)" style="fill: #fff"/>
    <path d="M204.09814,608.50781c5.89161-2.41211,10.49952,1.6836,12.76465,7.2168,2.09717,5.12305,1.74512,9.81348-1.58691,13.51074l-6.51758-5.10742a4.54738,4.54738,0,0,0,1.24024-5.59277c-.75538-1.84473-1.69678-2.53614-2.7212-2.11621-2.81787,1.15332,3.82813,13.14746-5.03515,16.77539-5.584,2.28711-10.33155-1.27246-12.5127-6.59961a12.11011,12.11011,0,0,1,1.39112-12.23438l6.22021,5.11035a4.01848,4.01848,0,0,0-.84863,4.35547c.54492,1.33106,1.39306,1.94141,2.31543,1.56446C201.72705,624.19434,194.62109,612.38867,204.09814,608.50781Z" transform="translate(-129.5 -129.5)" style="fill: #fff"/>
    <path d="M199.89893,589.96484a7.22623,7.22623,0,0,0-3.55469-4.47558l1.72851-7.46387c4.38916,1.50293,7.43262,4.86035,8.958,9.89356,2.74658,9.06054-1.644,16.52441-9.53808,18.916-7.89454,2.39356-15.72168-1.48242-18.25928-9.85254-2.34522-7.73535,1.90771-15.27246,9.90723-17.69726a16.15079,16.15079,0,0,1,3.27587-.64453l5.70118,18.80761C200.56738,595.60645,200.78223,592.87988,199.89893,589.96484Zm-11.12012-1.95019a5.69832,5.69832,0,0,0-2.48242,6.88476c.915,3.02051,3.0083,4.583,5.93554,4.50684Z" transform="translate(-129.5 -129.5)" style="fill: #fff"/>
    <path d="M196.15771,530.28906l-3.21972,3.89453a17.20676,17.20676,0,0,1,4.35058,9.52735c1.06055,7.90136-2.49414,14.29883-9.7373,15.27051a13.12145,13.12145,0,0,1-11.85352-4.665,11.76374,11.76374,0,0,1-5.877,2.4082c-6.4751.86816-11.91846-3.4834-12.90527-10.83594a13.16249,13.16249,0,0,1,6.70117-13.74609l5.34424,6.93457c-2.44678,1.333-3.83155,3.084-3.50049,5.55273.29443,2.19434,1.86523,3.49317,3.731,3.24219,2.14013-.28711,3.39013-1.7959,5.02734-3.74609l6.89648-8.13282a29.18123,29.18123,0,0,0-6.27929-1l3.18359-7.91211a28.41948,28.41948,0,0,1,8.5376,2.42969l4.72949-5.55078Zm-8.36962,10.05957-6.62989,8.041-.28466.37305a5.46147,5.46147,0,0,0,4.55273,1.45605c2.57812-.34668,4.27783-2.251,3.75537-6.14648A8.16026,8.16026,0,0,0,187.78809,540.34863Z" transform="translate(-129.5 -129.5)" style="fill: #fff"/>
    <path d="M173.58887,505.81445c-11.39551-.4248-19.81983-9.21386-19.38477-20.88623a19.32859,19.32859,0,0,1,9.58008-16.26123l4.14111,7.79932a10.018,10.018,0,0,0-5.09179,8.7832c-.25586,6.85987,4.17089,11.45654,11.08545,11.71387,6.91455.25879,11.67089-3.99561,11.92675-10.856.147-3.92627-1.49756-7.3667-4.42334-9.13769l4.71-7.46924a19.18829,19.18829,0,0,1,8.34278,16.9292C194.04,498.10205,184.98438,506.24023,173.58887,505.81445Z" transform="translate(-129.5 -129.5)" style="fill: #fff"/>
    <path d="M171.80273,434.94775l27.34278,4.28467-1.28467,8.20362-2.5708-.40284c1.79248,1.79346,2.67627,4.7334,2.11084,8.34326-.86524,5.522-5.54,9.60792-12.92236,8.45215l-16.78858-2.63086,1.28516-8.20312L184.561,455.4375c3.39013.53076,5.31005-1.353,5.72167-3.97852.47071-3.00732-.95361-5.35937-4.83593-5.96826l-14.9292-2.33886Z" transform="translate(-129.5 -129.5)" style="fill: #fff"/>
    <path d="M197.80273,410.439c6.16748,1.57959,7.42188,7.61524,5.93848,13.40772-1.37353,5.36279-4.45605,8.9165-9.335,9.896l-2.18359-7.98829a4.546,4.546,0,0,0,4.332-3.74853c.49463-1.93066.15185-3.04736-.9209-3.32178-2.94971-.75537-4.773,12.83594-14.05127,10.46-5.84619-1.49658-7.53223-7.18652-6.10352-12.76465a12.1104,12.1104,0,0,1,8.41651-8.98779l1.94238,7.8125a4.02028,4.02028,0,0,0-3.27978,2.98828c-.35645,1.395-.04053,2.39014.9248,2.6377C186.53955,421.61279,187.88086,407.89746,197.80273,410.439Z" transform="translate(-129.5 -129.5)" style="fill: #fff"/>
    <path d="M191.67432,392.91846l9.28271,3.13281c2.25488.76123,3.11963-1.10889,4.07764-4.64063l7.13183,2.40625c-2.41894,10.63331-6.52246,12.57862-13.86474,10.10059l-9.28272-3.13232-1.41552,4.1958-7.55176-2.54834,1.416-4.1958-4.98242-1.68116.29444-8.66259,7.34228,2.47754,1.82275-5.40186,7.55225,2.54834Z" transform="translate(-129.5 -129.5)" style="fill: #fff"/>
    <path d="M200.32764,385.37354a14.66686,14.66686,0,1,1,19.2583-7.59766A14.50394,14.50394,0,0,1,200.32764,385.37354Zm8.41211-19.27588a6.367,6.367,0,1,0,3.43994,8.4458A6.20676,6.20676,0,0,0,208.73975,366.09766Z" transform="translate(-129.5 -129.5)" style="fill: #fff"/>
    <path d="M233.65918,315.00537l14.54541,8.78613-4.29248,7.10694-13.93018-8.41455c-2.36865-1.43067-4.57177-1.21-5.9458,1.06445-1.43115,2.36914-.57373,4.69775,2.22119,6.38623l13.36133,8.0708-4.29345,7.10645-13.9292-8.41407c-2.36866-1.43115-4.57178-1.20947-5.9458,1.06446-1.43116,2.36914-.57374,4.69775,2.22168,6.38574l13.36083,8.07129-4.29345,7.10693L203.0498,345.01563l4.293-7.10694,2.1792,1.31641c-.95166-2.0625-.9248-4.89112.99219-8.06592a8.23757,8.23757,0,0,1,6.87695-4.31738c-1.09375-2.47168-1.00927-5.39551,1.023-8.75977C221.70508,312.63379,227.7373,311.42725,233.65918,315.00537Z" transform="translate(-129.5 -129.5)" style="fill: #fff"/>
    <path d="M258.84473,297.16113c5.01709,3.91992,3.74609,9.95264.06494,14.66455-3.40869,4.3628-7.65674,6.38233-12.51953,5.32325l1.20215-8.19385a4.547,4.547,0,0,0,5.47167-1.69727c1.22706-1.5708,1.36036-2.73.4878-3.41211-2.39942-1.875-9.519,9.84571-17.06592,3.94873-4.75537-3.71435-4.019-9.603-.47461-14.14013a12.11164,12.11164,0,0,1,11.31445-4.85987L245.97314,296.73a4.01865,4.01865,0,0,0-4.20263,1.42334c-.88672,1.13428-.99561,2.17334-.21045,2.78662C244.04688,302.88281,250.77393,290.85547,258.84473,297.16113Z" transform="translate(-129.5 -129.5)" style="fill: #fff"/>
    <path d="M289.52832,265.11279l5.9458,6.10791L278.021,288.2085l-27.02539-27.76661L268.251,243.648l5.94531,6.1084-10.9082,10.61719,4.47851,4.60107,9.91651-9.65186,5.86816,6.0293-9.9165,9.65186,4.78759,4.91894Z" transform="translate(-129.5 -129.5)" style="fill: #fff"/>
    <path d="M321.91064,228.97656,332.14941,242.54l-6.62695,5.00293-9.80517-12.98975c-1.66749-2.209-3.79493-2.82226-5.916-1.22168-2.209,1.66748-2.2793,4.14746-.311,6.7544l9.40479,12.46-6.62744,5.00195-9.80469-12.98926c-1.668-2.209-3.79541-2.82226-5.9165-1.22168-2.209,1.66748-2.27881,4.148-.311,6.7544l9.40528,12.45947-6.62793,5.00293L282.3374,245.4624l6.62744-5.00244,1.53467,2.03223c-.11816-2.26953.959-4.88574,3.91846-7.12012a8.23822,8.23822,0,0,1,7.98926-1.45312c-.09668-2.70069,1.06884-5.38379,4.20507-7.75147C311.69385,222.332,317.74219,223.45313,321.91064,228.97656Z" transform="translate(-129.5 -129.5)" style="fill: #fff"/>
    <path d="M356.65283,212.918c4.04492,7.18848,1.95557,15.66894-4.36474,19.22412a10.395,10.395,0,0,1-8.84522,1.10156l6.70508,11.918-7.23779,4.07129-19.001-33.77344,7.2373-4.07177,1.27588,2.26757a10.39567,10.39567,0,0,1,5.53321-6.9873C344.27588,203.1123,352.60889,205.729,356.65283,212.918Zm-7.23681,4.07129c-2.03614-3.61865-5.72413-4.52881-9.05323-2.65625-3.3291,1.87353-4.46582,5.498-2.43017,9.1167,2.03613,3.61865,5.72412,4.52929,9.05322,2.65625C350.31543,224.23242,351.45166,220.60791,349.416,216.98926Z" transform="translate(-129.5 -129.5)" style="fill: #fff"/>
    <path d="M351.12207,186.44629l7.542-3.47461,16.90967,36.70508-7.542,3.47461Z" transform="translate(-129.5 -129.5)" style="fill: #fff"/>
    <path d="M375.15918,204.43506a14.67069,14.67069,0,1,1,18.8252,8.62744A14.50882,14.50882,0,0,1,375.15918,204.43506Zm19.73389-7.28858a6.36862,6.36862,0,1,0-3.709,8.334A6.209,6.209,0,0,0,394.89307,197.14648Z" transform="translate(-129.5 -129.5)" style="fill: #fff"/>
    <path d="M429.66406,172.82422l-2.38867,28.36523c-.77978,9.29834-4.668,13.916-12.26416,15.49512l-1.95459-7.499c3.749-.97705,5.20947-2.6167,5.53613-6.19043l-17.31738-22.772,8.83789-2.30322,10.2168,14.84082.76367-17.70312Z" transform="translate(-129.5 -129.5)" style="fill: #fff"/>
    <path d="M451.67822,190.47559a7.22754,7.22754,0,0,0,4.91944-2.90918l7.15918,2.73388c-2.09034,4.14209-5.8335,6.69629-11.02832,7.51905-9.34913,1.48095-16.14063-3.88916-17.43116-12.03614-1.29-8.14648,3.61963-15.37011,12.2583-16.73779,7.98291-1.26465,14.86622,3.97852,16.17383,12.23535a16.1003,16.1003,0,0,1,.1919,3.332L444.51074,187.687C445.99951,190.36572,448.6709,190.95166,451.67822,190.47559Zm3.4541-10.74805a5.69815,5.69815,0,0,0-6.48-3.40137c-3.11621.49317-4.95166,2.35352-5.27588,5.26319Z" transform="translate(-129.5 -129.5)" style="fill: #fff"/>
    <path d="M484.2915,187.16113a7.226,7.226,0,0,0,5.1958-2.38037l6.834,3.46533c-2.51074,3.90137-6.499,6.05079-11.75,6.32764-9.45166.49756-15.646-5.5498-16.08008-13.78613-.4331-8.23633,5.20166-14.90723,13.93506-15.36719,8.06982-.4248,14.36914,5.50684,14.80811,13.853a16.086,16.086,0,0,1-.15674,3.33447l-19.623,1.03272C478.65625,186.46,481.25146,187.32129,484.2915,187.16113Zm4.55518-10.32812a5.697,5.697,0,0,0-6.08838-4.05811c-3.15088.166-5.16992,1.82471-5.79541,4.68457Z" transform="translate(-129.5 -129.5)" style="fill: #fff"/>
    <path d="M523.5918,185.77051c-.23926,6.36181-5.87305,8.86426-11.84668,8.63965-5.53223-.208-9.65723-2.46729-11.64649-7.0293l7.34473-3.82373a4.54628,4.54628,0,0,0,4.58008,3.44043c1.99121.07471,3.00976-.4961,3.05078-1.60254.11426-3.04248-13.55371-1.94971-13.19434-11.519.22657-6.0293,5.42969-8.88086,11.1836-8.66455a12.1106,12.1106,0,0,1,10.56445,6.32373l-7.22461,3.55078a4.01739,4.01739,0,0,0-3.61426-2.57276c-1.43847-.0542-2.34375.46534-2.38183,1.46143C510.28906,177.12793,523.97559,175.53662,523.5918,185.77051Z" transform="translate(-129.5 -129.5)" style="fill: #fff"/>
    <path d="M534.49609,172.78564l-6.60937-.667,3.84375-16.02392,8.81152.88916Z" transform="translate(-129.5 -129.5)" style="fill: #fff"/>
    <path d="M559.457,178.9375c2.69336-11.08105,12.99024-17.58008,24.34082-14.82031a19.32683,19.32683,0,0,1,14.01953,12.63769l-8.46972,2.499a10.01744,10.01744,0,0,0-7.58985-6.74512c-6.6709-1.62158-12.05957,1.79687-13.69433,8.521-1.63477,6.7246,1.584,12.23535,8.2539,13.85693,3.82032.92871,7.51953.00488,9.83985-2.50733l6.37695,6.10791a19.189,19.189,0,0,1-18.25684,4.79151C562.92676,200.51953,556.7627,190.01953,559.457,178.9375Z" transform="translate(-129.5 -129.5)" style="fill: #fff"/>
    <path d="M598.37012,194.62549a14.66794,14.66794,0,1,1,8.623,18.82422A14.50651,14.50651,0,0,1,598.37012,194.62549Zm19.70117,7.36474a6.36745,6.36745,0,1,0-8.249,3.88916A6.20784,6.20784,0,0,0,618.07129,201.99023Z" transform="translate(-129.5 -129.5)" style="fill: #fff"/>
    <path d="M634.81738,201.70752l18.87207,9.291L650.168,218.1499l-18.87109-9.2915Z" transform="translate(-129.5 -129.5)" style="fill: #fff"/>
    <path d="M660.03125,215.28223a20.14878,20.14878,0,1,1,5.958,27.86523A19.976,19.976,0,0,1,660.03125,215.28223ZM686.4209,232.375c3.76172-5.80713,2.07812-12.37256-3.21875-15.80273-5.2959-3.43067-11.97656-2.28272-15.73828,3.52441-3.75977,5.80811-2.07617,12.37256,3.21875,15.80322C675.97949,239.33057,682.65918,238.18262,686.4209,232.375Z" transform="translate(-129.5 -129.5)" style="fill: #fff"/>
    <path d="M718.85254,265.48438c-5.3291,6.29394-14.00488,7.2871-19.53906,2.60058a10.3976,10.3976,0,0,1-4.11133-7.90674l-8.83594,10.43262-6.335-5.36621,25.043-29.56592,6.335,5.36572-1.68164,1.98584a10.39382,10.39382,0,0,1,8.47559,2.75391C723.73633,250.4707,724.18359,259.19189,718.85254,265.48438Zm-6.335-5.36573c2.68359-3.16748,2.25293-6.94189-.66113-9.41015-2.915-2.46875-6.708-2.272-9.39161.896-2.68261,3.16748-2.25293,6.94141.66211,9.40967C706.041,263.48291,709.834,263.28662,712.51758,260.11865Z" transform="translate(-129.5 -129.5)" style="fill: #fff"/>
    <path d="M727.95215,285.22363a7.22609,7.22609,0,0,0,5.18262,2.40772l1.80078,7.44726c-4.59766.62256-8.82325-1.01611-12.44141-4.83105-6.51367-6.86719-5.93359-15.5044.05078-21.18067,5.9834-5.67529,14.71582-5.71923,20.73438.626,5.56152,5.86328,5.13769,14.5044-.92676,20.25635a16.08083,16.08083,0,0,1-2.6377,2.04492L726.19141,277.7373C724.82715,280.48145,725.85645,283.01465,727.95215,285.22363Zm10.81348-3.23877a5.69693,5.69693,0,0,0-.86524-7.26611c-2.1709-2.28857-4.74316-2.74854-7.32422-1.36816Z" transform="translate(-129.5 -129.5)" style="fill: #fff"/>
    <path d="M767.74121,298.77881l-7.3584,5.86523c-1.70605-3.02929-5.82422-5.97509-10.11035-2.56006l-9.78418,7.79786-5.1748-6.49317,21.64453-17.251,5.17578,6.49267-3.85352,3.0708C761.87109,294.25537,765.56738,296.05176,767.74121,298.77881Z" transform="translate(-129.5 -129.5)" style="fill: #fff"/>
    <path d="M786.52246,327.26758,763.458,342.563l-4.58887-6.91895,2.168-1.438a10.39474,10.39474,0,0,1-7.37207-5.00683c-4.00781-6.04248-2.00586-14.54248,4.86719-19.10059,6.87207-4.5581,15.48144-3.09424,19.48925,2.94873a10.39891,10.39891,0,0,1,1.74415,8.73926l2.167-1.438Zm-16.12207.72851c3.46-2.29394,4.09863-6.03808,1.98828-9.22119-2.11133-3.18261-5.80957-4.05127-9.26758-1.75732-3.46,2.29443-4.09863,6.03906-1.9873,9.22119C763.24414,329.42188,766.94141,330.29053,770.40039,327.99609Z" transform="translate(-129.5 -129.5)" style="fill: #fff"/>
    <path d="M788.7959,348.08594l-8.62695,4.64013c-2.09668,1.12745-1.32129,3.03565.60449,6.14795l-6.62989,3.56543c-6.11425-9.02929-4.73144-13.354,2.0918-17.0249l8.62793-4.64111-2.09765-3.89893,7.01953-3.77539,2.09668,3.8999,4.63183-2.49072,6.126,6.13135-6.82422,3.67041,2.7002,5.021-7.01954,3.77491Z" transform="translate(-129.5 -129.5)" style="fill: #fff"/>
    <path d="M801.291,355.12988l3.50878,7.52539-25.08593,11.6958-3.50879-7.52539Zm6.37207-3.88769a4.98258,4.98258,0,1,1-2.40918,6.62109A5.03394,5.03394,0,0,1,807.66309,351.24219Z" transform="translate(-129.5 -129.5)" style="fill: #fff"/>
    <path d="M817.82422,395.30615l-29.50684.25244-3.34082-8.79687,22.23633-19.39844,3.2627,8.58985-14.36036,11.61035,18.44629-.84766Z" transform="translate(-129.5 -129.5)" style="fill: #fff"/>
    <path d="M802.61523,419.09863a7.226,7.226,0,0,0,3.417,4.58155l-1.95606,7.40771c-4.34179-1.63672-7.27929-5.08594-8.65039-10.16211-2.46777-9.13818,2.14844-16.46142,10.11035-18.6123,7.96192-2.15039,15.666,1.96142,17.94532,10.40429,2.10742,7.80225-2.37207,15.20411-10.44043,17.38282a16.083,16.083,0,0,1-3.29395.54589l-5.12305-18.9707C802.11914,413.44189,801.82227,416.15967,802.61523,419.09863Zm11.05372,2.29a5.69808,5.69808,0,0,0,2.6914-6.80469c-.82226-3.04589-2.86719-4.67236-5.79394-4.68457Z" transform="translate(-129.5 -129.5)" style="fill: #fff"/>
    <path d="M822.4541,449.08838c11.34863-1.13379,20.89258,6.42334,22.05469,18.04736a19.32715,19.32715,0,0,1-7.27149,17.41651l-5.167-7.16065a10.01361,10.01361,0,0,0,3.84473-9.39746c-.68164-6.83105-5.69434-10.78076-12.58008-10.09326-6.88574.68848-11.0166,5.55225-10.334,12.38281.39062,3.91211,2.48828,7.09522,5.62793,8.44971l-3.64844,8.04248a19.18911,19.18911,0,0,1-10.57324-15.6333C803.24512,459.519,811.10742,450.22217,822.4541,449.08838Z" transform="translate(-129.5 -129.5)" style="fill: #fff"/>
    <path d="M834.67285,509.23633l-9.40918-.07324c.58008-3.42774-.76562-8.30909-6.24512-8.35157l-12.50878-.09668.06445-8.30273,27.6748.21484-.06445,8.30323-4.92676-.03858C832.958,502.02734,834.7002,505.74805,834.67285,509.23633Z" transform="translate(-129.5 -129.5)" style="fill: #fff"/>
    <path d="M812.042,526.71484a7.22611,7.22611,0,0,0,1.666,5.46582l-4.34278,6.31153c-3.53222-3.00684-5.13183-7.24707-4.708-12.48731.76562-9.43359,7.585-14.76758,15.80371-14.10058,8.22168.667,14.083,7.13965,13.375,15.85547-.65235,8.05566-7.37012,13.50781-15.70117,12.833a16.03345,16.03345,0,0,1-3.28223-.60058l1.58691-19.584C813.4873,521.22363,812.28711,523.68164,812.042,526.71484Zm9.62891,5.89063a5.69841,5.69841,0,0,0,4.832-5.49609c.25586-3.14258-1.11914-5.36524-3.87012-6.36622Z" transform="translate(-129.5 -129.5)" style="fill: #fff"/>
    <path d="M836.38574,579.38477l-38.05664-7.31348,1.56738-8.15527,2.55469.49121a10.39939,10.39939,0,0,1-1.75879-8.73828c1.36817-7.12207,8.749-11.791,16.84864-10.23536,8.10156,1.55762,13.22461,8.62989,11.85644,15.752a10.39673,10.39673,0,0,1-4.87305,7.46386l13.42872,2.58106Zm-22.89746-12.85645c4.07715.78418,7.1543-1.44336,7.876-5.19531.7207-3.751-1.3125-6.96094-5.38965-7.74414-4.07715-.78418-7.15527,1.44336-7.875,5.19531C807.37793,562.53516,809.41016,565.74512,813.48828,566.52832Z" transform="translate(-129.5 -129.5)" style="fill: #fff"/>
    <path d="M823.165,585.51563l-2.2207,8.001-26.668-7.40332,2.22168-8Zm7.36914,1.18457a4.98168,4.98168,0,1,1-6.13281,3.46777A5.03211,5.03211,0,0,1,830.53418,586.7002Z" transform="translate(-129.5 -129.5)" style="fill: #fff"/>
    <path d="M807.76855,608.43555l-9.2705-3.17578c-2.251-.77247-3.125,1.09375-4.09961,4.623l-7.1211-2.4414c2.46875-10.62207,6.58106-12.54883,13.91211-10.03614L810.46,600.5791l1.43457-4.18847,7.541,2.584-1.43457,4.18945,4.97461,1.7041-.335,8.66309-7.33106-2.51172-1.84766,5.39356-7.541-2.583Z" transform="translate(-129.5 -129.5)" style="fill: #fff"/>
    <path d="M788.63281,627.97461,789.167,636.79a8.11572,8.11572,0,0,0-8.44824,4.86621c-1.88672,3.76172-.874,5.44629.46191,6.11523,2.12891,1.06836,3.96192-.48925,8.00391-4.96582,4.01465-4.42675,9.02148-8.23339,15.65137-4.90722,6.68164,3.35058,7.71191,10.92773,4.709,16.91406a15.032,15.032,0,0,1-14.17285,8.74707l-.55957-8.6416c3.07031.05469,5.42383-.80957,7.01172-3.97656,1.24121-2.47364.625-4.33106-.76172-5.02637-1.583-.79395-3.09375-.499-7.43164,4.07519-4.21289,4.45118-8.99805,9.4209-16.32227,5.749-6.67968-3.35059-7.958-10.68067-4.18652-18.20215C776.77051,630.26367,782.56738,627.34863,788.63281,627.97461Z" transform="translate(-129.5 -129.5)" style="fill: #fff"/>
    <path d="M777.0127,661.64844a14.66912,14.66912,0,1,1-20.24122,4.36719A14.50787,14.50787,0,0,1,777.0127,661.64844Zm-11.43653,17.65527a6.36789,6.36789,0,1,0-2.02051-8.89355A6.20911,6.20911,0,0,0,765.57617,679.30371Z" transform="translate(-129.5 -129.5)" style="fill: #fff"/>
    <path d="M758.06934,690.2666a14.63786,14.63786,0,0,1-11.14551,25.90332l1.25976-8.28808a5.73011,5.73011,0,0,0,5.77832-2.2461,6.42249,6.42249,0,0,0-10.01269-8.03906,5.67643,5.67643,0,0,0-.94434,6.12695l-7.77636,3.05469a14.12741,14.12741,0,0,1,2.26464-14.22363A14.33573,14.33573,0,0,1,758.06934,690.2666Z" transform="translate(-129.5 -129.5)" style="fill: #fff"/>
    <path d="M747.99707,724.041l-5.64258,6.09082-20.30273-18.80957,5.64258-6.09082Zm6.00586,4.43261a4.982,4.982,0,1,1-7.042.26758A5.03244,5.03244,0,0,1,754.00293,728.47363Z" transform="translate(-129.5 -129.5)" style="fill: #fff"/>
    <path d="M712.05371,730.43555a7.23014,7.23014,0,0,0-2.4668,5.15625l-7.46777,1.71582c-.57129-4.60449,1.11524-8.81055,4.97168-12.38672,6.94141-6.43555,15.57129-5.75684,21.17969.29,5.6084,6.04785,5.55273,14.78125-.85938,20.72851-5.92675,5.49512-14.56347,4.97266-20.24707-1.15527a16.1157,16.1157,0,0,1-2.01465-2.66211l14.40821-13.36133C716.83105,727.36426,714.28613,728.36523,712.05371,730.43555Zm3.11524,10.85058a5.69875,5.69875,0,0,0,7.27636-.78222c2.3125-2.14649,2.80176-4.71289,1.4502-7.31055Z" transform="translate(-129.5 -129.5)" style="fill: #fff"/>
    <path d="M698.2627,759.08594l-6.0254-7.72461c-1.46386-1.876-3.21582-.791-5.96,1.62988l-4.63086-5.93359c7.874-7.54688,12.37012-6.91309,17.13575-.80274l6.02734,7.72364,3.49121-2.72364,4.90235,6.28418-3.49024,2.72461,3.23438,4.14649-5.01465,7.07129-4.7666-6.11036-4.49512,3.50782-4.90235-6.28516Z" transform="translate(-129.5 -129.5)" style="fill: #fff"/>
    <path d="M670.41406,787.9043l-6.77539-27.65137c-2.22363-9.06348-.00879-14.67871,6.68946-18.59668l4.24121,6.48535c-3.24317,2.1211-4.10352,4.14063-3.27637,7.63379l23.6748,16.06836-7.64453,5-14.416-10.8125,4.918,17.02441Z" transform="translate(-129.5 -129.5)" style="fill: #fff"/>
    <path d="M622.92676,790.42676l-3.64063-7.707,20.51953-9.69727,16.55469,35.03418-8.00879,3.78418-12.91113-27.32617Z" transform="translate(-129.5 -129.5)" style="fill: #fff"/>
    <path d="M613.39453,805.97461l-3.48633-9.15625c-.84765-2.22461-2.83984-1.70215-6.1748-.19531l-2.67969-7.03516c9.74512-4.89551,13.85645-2.96582,16.61426,4.27539l3.4873,9.15625,4.13672-1.57519,2.83594,7.44824-4.1377,1.57715,1.87012,4.91406-6.87109,5.28223-2.75781-7.24317-5.32911,2.0293-2.83593-7.44922Z" transform="translate(-129.5 -129.5)" style="fill: #fff"/>
    <path d="M580.15527,836.19238l-10.50683-37.2959,7.99219-2.251.70507,2.50293a10.398,10.398,0,0,1,7.02246-5.48535c6.98047-1.9668,14.46094,2.54,16.69727,10.47754,2.23633,7.93945-1.792,15.6875-8.77051,17.65332a10.405,10.405,0,0,1-8.85547-1.0127l3.708,13.15918Zm1.23731-26.22754c1.126,3.9961,4.49512,5.75,8.17285,4.71485,3.67578-1.03711,5.63477-4.291,4.50879-8.28711-1.126-3.99707-4.49512-5.751-8.17285-4.71485C582.22559,802.71484,580.2666,805.96875,581.39258,809.96484Z" transform="translate(-129.5 -129.5)" style="fill: #fff"/>
    <path d="M564.79492,804.27832a5.25873,5.25873,0,1,1-6.166-4.1582A5.29236,5.29236,0,0,1,564.79492,804.27832Z" transform="translate(-129.5 -129.5)" style="fill: #fff"/>
  </g>
  <circle cx="370.5" cy="370.5" r="286" style="fill: #fff;stroke: #000;stroke-miterlimit: 5"/>
  <g>
    <circle cx="370.5" cy="369.5" r="119.5"/>
    <path d="M500,380a119.00006,119.00006,0,1,1-84.14569,34.85431A118.22091,118.22091,0,0,1,500,380m0-1A120,120,0,1,0,620,499,120,120,0,0,0,500,379Z" transform="translate(-129.5 -129.5)"/>
  </g>
  <circle cx="370.5" cy="370.5" r="171" style="fill: #6c3538;stroke: #000;stroke-miterlimit: 5"/>
  <circle cx="376.5" cy="697.5" r="6" style="fill: #fff"/>
  <g>
    <g>
      <g>
        <path d="M749.85526,513.02676c-7.41643,3.82689-9.80279,13.122-6.58318,20.55688,4.73682,10.9353,19.31912,10.2137,23.48633-2.05217C771.10213,518.59042,759.86217,507.72706,749.85526,513.02676Z" transform="translate(-129.5 -129.5)" style="fill: #ffbe51;stroke: #000;stroke-miterlimit: 10"/>
        <path d="M721.66543,497.132c-1.33692,1.07265-2.66179,2.17623-4.00073,3.23343,4.44933,5.48128,4.31581,5.36056,7.75367,9.93629-.28548-.1281-6.78932-2.07166-7.08892-2.16143-1.99026,1.996-3.6144,3.62146-6.135,5.92411-9.557-.62509-18.9765-1.24145-28.55969-1.86823-.16579,2.62446-.05381,1.18865-.41527,5.25934l21.43922,2.0081c-.081.86518-.15167,1.73137-.2549,2.59421l-21.41163-2.27745c-.54338,4.70419-.35645,3.23745-.6389,5.2311,4.05623.55046,26.73924,3.6292,28.38184,3.85212,2.8706,4.00814,3.52427,5.05188,4.81617,7.00719,2.45869-.2088,4.91837-.45461,7.38346-.70007-5.43588,4.87769-5.39151,4.74117-9.58356,8.219,1.85342,2.19977,1.3467,1.59485,3.25122,3.88845,19.45162-15.26962,10.49718-12.45787,20.35312-13.79615,1.032-7.42414,1.47078-12.32774,1.87834-18.763C730.88048,511.95074,737.587,517.049,721.66543,497.132Z" transform="translate(-129.5 -129.5)" style="fill: #ffbe51;stroke: #000;stroke-miterlimit: 10"/>
      </g>
      <g>
        <path d="M730.89932,580.72072c.77841,10.84184,12.31259,16.31167,20.51046,8.99712,5.57675-4.92341,7.1-13.8987,3.92746-19.78417C748.56508,557.34636,729.79233,565.43057,730.89932,580.72072Z" transform="translate(-129.5 -129.5)" style="fill: #ffbe51;stroke: #000"/>
        <path d="M717.08028,541.43952c-.14292.073-3.52327,1.80064-4.5038,2.302,2.72636,5.14468,3.85416,7.47022,5.98431,12.07185-10.286-5.216-17.01681-8.32967-25.58993-12.17878-.12642.48554-.36753,1.91228-2.47281,9.77893l-13.20334-3.686c-.16275.64023-.24074.8736-1.17488,4.01151l13.11189,3.99874c-.30465,1.074-.54674,1.78786-1.78417,5.58316l-12.98547-4.37869-1.38639,3.94392,12.88121,4.682c-1.36722,3.78388-2.6574,6.88175-3.67224,9.37542,9.478,1.961,19.185,3.67794,27.92553,4.9863-3.75261,2.22969-8.826,4.79026-11.9545,6.36394.81913,1.48757,1.56392,2.98561,2.343,4.48866,9.04252-4.35821,17.82953-9.68376,17.82953-9.68376,2.227.29221,4.45672.58742,6.6938.8504q3.86862-10.38012,6.76005-21.09118C722.55044,557.76735,729.29235,564.1918,717.08028,541.43952Z" transform="translate(-129.5 -129.5)" style="fill: #ffbe51;stroke: #000"/>
      </g>
    </g>
    <g>
      <g>
        <path d="M735.37348,624.73631c-1.60627-17.18224-26.62459-13.68215-26.80044,4.93454-.14292,12.11084,13.79819,17.05884,22.27579,7.72677A17.01466,17.01466,0,0,0,735.37348,624.73631Z" transform="translate(-129.5 -129.5)" style="fill: #ffbe51;stroke: #000;stroke-miterlimit: 10"/>
        <path d="M703.67618,587.61458q-2.474.65872-4.92042,1.27741c1.41431,4.93992,2.64665,10.516,3.033,12.23057-.2088-.23405-5.34743-4.65846-5.5855-4.86291-4.55153,1.73808-5.15476,1.92976-8.01866,2.89883-8.46857-4.4735-16.815-8.88248-25.30679-13.36843-1.1342,2.109-.00907.1261-2.52223,4.62115l18.74717,10.59335c-.426.75657-.848,1.51548-1.29288,2.26163l-18.61132-10.829c-.9052,1.50473-1.769,3.034-2.72028,4.51119,3.47718,2.16044,22.92076,14.241,24.32865,15.11562.69772,3.41466.97347,4.92341,1.53334,8.36533,2.32755.81273,4.67156,1.59286,7.02,2.375-2.88542.92807-8.61216,2.74852-12.1021,3.58986.04773.16878,1.28718,4.54882,1.381,4.879,24.33637-6.35217,15.37319-6.87539,24.21229-4.27681,3.50107-5.49606,6.57714-11.0392,9.38485-16.36212C705.37831,604.17171,710.43861,611.16983,703.67618,587.61458Z" transform="translate(-129.5 -129.5)" style="fill: #ffbe51;stroke: #000;stroke-miterlimit: 10"/>
      </g>
      <g>
        <path d="M677.22276,671.98234a12.61178,12.61178,0,0,0,3.9298,9.91444c9.2705,8.26679,24.51221-2.05754,23.61542-14.13743C703.4721,651.03339,677.86534,654.823,677.22276,671.98234Z" transform="translate(-129.5 -129.5)" style="fill: #ffbe51;stroke: #000"/>
        <path d="M681.45856,626.13747c-.17416.00875-3.955.22662-5.06027.25589.081,1.25725.57367,8.1945.54038,13.46965-6.19886-7.60069-11.79343-14.26391-18.37862-21.55793-1.86047,2.33194-1.44488,2.03567-6.26441,7.92787l-10.55332-8.749-2.71154,3.19778,10.34485,8.99413c-3.57,4.02565-2.63958,2.99435-3.92644,4.36794l-10.07887-9.28532c-2.63388,2.82992-1.90522,2.06157-2.876,3.05218l9.86268,9.51666c-.32751.33625-4.28995,4.44966-7.18541,7.08083,7.68507,5.52163,15.49053,10.78737,23.50246,15.90818-2.77512.26566-8.39592.811-13.50864.96337.12609,1.6722.21217,3.35917.32045,5.05624,11.59234-.47109,20.22937-1.60258,20.22937-1.60258,1.9126,1.16983,3.82624,2.34335,5.76,3.49032q7.75281-7.90011,14.75851-16.49159C679.27763,642.617,683.64893,651.94261,681.45856,626.13747Z" transform="translate(-129.5 -129.5)" style="fill: #ffbe51;stroke: #000"/>
      </g>
    </g>
    <g>
      <g>
        <path d="M664.32476,709.65081c5.53711-16.6116-19.01549-23.06733-26.49714-6.35688-4.90359,10.95176,5.292,21.10329,17.235,16.08908A17.24288,17.24288,0,0,0,664.32476,709.65081Z" transform="translate(-129.5 -129.5)" style="fill: #ffbe51;stroke: #000;stroke-miterlimit: 10"/>
        <path d="M650.39342,662.85674c-3.46072-.54777-2.66885-.41695-5.01758-.83124-.44823,2.93517-.90655,6.11915-2.18294,12.4212-.10052-.3154-2.99734-6.41907-3.13826-6.717-3.59153-.16341-7.79233-.52252-8.50083-.59148-5.92783-7.52232-11.77057-14.93674-17.71485-22.47959-.304.24111-3.7664,2.90019-4.188,3.20283l12.84656,17.28107q-1.05821.76063-2.10631,1.53568l-12.62766-17.44083c-1.58444,1.15469-.55716.428-4.31145,3.03335,2.304,3.38372,15.18725,22.305,16.12,23.67494-.39241,1.90354-1.47649,6.329-1.98358,8.2752,1.80031,1.68833,3.62011,3.33968,5.448,5.00211-5.24152-.51715-7.3152-.86822-12.52344-1.62882,0,0-.4378,3.28082-.70411,5.03675,25.00855,4.296,16.51342-.34565,23.87336,5.90361q7.80683-5.294,15.199-11.16361C645.08634,678.35569,647.0904,687.76846,650.39342,662.85674Z" transform="translate(-129.5 -129.5)" style="fill: #ffbe51;stroke: #000;stroke-miterlimit: 10"/>
      </g>
      <g>
        <path d="M594.52887,725.635c-5.01655,5.1699-5.85887,14.15459.89342,18.94588,9.76379,6.97961,25.6898-2.24077,24.06365-13.61356C617.88139,719.73506,602.89084,717.03465,594.52887,725.635Z" transform="translate(-129.5 -129.5)" style="fill: #ffbe51;stroke: #000"/>
        <path d="M614.47074,689.08388c-.15064-.05816-3.70819-1.43478-4.74051-1.83392-2.42942,6.74391-4.03369,10.361-4.96446,12.52984-2.37529-8.80683-4.97789-17.7357-8.06944-27.16123-.66914.342-3.50882,2.02121-8.92821,4.70652l-6.09829-12.277c-2.299,1.147-1.43951.73268-3.76841,1.8161l5.80543,12.41787c-3.08346,1.42338-.67452.37357-5.34743,2.40488l-5.43958-12.57791c-1.26937.57736-2.56931,1.08105-3.85785,1.61334l5.145,12.70335c-2.72,1.15706-7.15381,2.73272-9.42352,3.54446,4.93454,8.44,9.81728,16.25921,14.99121,24.08852-4.63527-1.50776-8.26716-2.85881-12.72856-4.61946-.56422,1.58173-1.16478,3.18029-1.76129,4.761,7.7715,3.27208,19.12778,6.75734,19.12778,6.75734,1.274,1.85108,2.5515,3.71493,3.85112,5.54684q10.30551-4.06479,20.19136-9.09634C605.99815,704.07878,605.68139,713.41688,614.47074,689.08388Z" transform="translate(-129.5 -129.5)" style="fill: #ffbe51;stroke: #000"/>
      </g>
    </g>
    <g>
      <g>
        <path d="M564.81078,758.418c8.66089-9.16525.04-23.0966-13.38863-20.57133-14.67814,2.75965-16.98418,19.34063-4.99168,24.46616A16.97067,16.97067,0,0,0,564.81078,758.418Z" transform="translate(-129.5 -129.5)" style="fill: #ffbe51;stroke: #000;stroke-miterlimit: 10"/>
        <path d="M571.18414,710.02877q-2.14614-1.39967-4.24889-2.81949c-3.11337,4.89083-5.24387,7.91375-7.05395,10.4464.03465-.31507-.11433-7.07344-.12139-7.39019-2.46306-1.27241-5.11275-2.66245-7.52132-4.02565-2.343-9.2863-4.65241-18.43916-7.00181-27.751-4.55187,1.10661-3.15374.78345-5.11812,1.20882l4.67157,21.02025q-1.27407.26882-2.54409.55483l-4.40391-21.07706c-.39039.09046-4.77144.93208-5.16485,1.0081.72026,4.02967,4.7479,26.56339,5.03976,28.1952-1.3941,1.87193-3.67188,4.85048-5.19276,6.72812.95462,2.28752,1.94084,4.54176,2.9291,6.80072-5.20756-2.955-9.98538-6.10334-10.76449-6.60908,0,0-2.10731,3.40593-2.70146,4.30944,20.99938,13.83316,15.37891,6.78156,19.37562,15.13783q9.29169-1.63973,18.44587-3.96646C560.00436,722.7079,557.78643,731.15731,571.18414,710.02877Z" transform="translate(-129.5 -129.5)" style="fill: #ffbe51;stroke: #000;stroke-miterlimit: 10"/>
      </g>
      <g>
        <path d="M487.7256,750.4337c-3.41836,5.73782-1.38569,12.72822,4.66283,16.38428,7.75065,4.63728,20.20718,1.72733,22.77783-7.248C519.45249,744.56945,495.89757,736.79157,487.7256,750.4337Z" transform="translate(-129.5 -129.5)" style="fill: #ffbe51;stroke: #000"/>
        <path d="M527.69171,719.29291c-.11365-.11464-2.798-2.82253-3.57674-3.60833-5.09289,5.28291-8.15953,8.0341-9.65217,9.407,1.39949-8.87037,2.66448-17.8712,3.73309-28.08794-.92975.04806-3.42743.37557-10.0893.65165l-.55784-13.697c-1.39949.04774-2.79731.1288-4.20049.12441l.23908,13.70571c-4.32994.05952-3.0051.0612-5.88376.01346l.15-13.703c-1.40184-.01884-2.80469-.01949-4.20284-.09215l-.463,13.69763c-2.66784-.10829-7.409-.31709-10.07651-.59013.996,8.91208,2.27107,18.16747,3.9298,28.10543-1.97918-1.81208-4.97587-4.48631-9.76414-9.37948-1.15672,1.21084-2.35142,2.40184-3.53874,3.61576,8.65216,8.82769,14.738,13.95453,14.738,13.95453.41226,2.20281.82215,4.40931,1.265,6.61244,7.37.30769,14.74909.31171,22.11811-.06522C513.86159,729.40507,509.38538,738.26974,527.69171,719.29291Z" transform="translate(-129.5 -129.5)" style="fill: #ffbe51;stroke: #000"/>
      </g>
    </g>
    <g>
      <g>
        <path d="M454.17856,762.448c14.7881-6.43792,6.28425-27.2547-10.80989-24.47088-14.6694,2.35681-15.04266,21.30906.38534,25.15549A16.90205,16.90205,0,0,0,454.17856,762.448Z" transform="translate(-129.5 -129.5)" style="fill: #ffbe51;stroke: #000;stroke-miterlimit: 10"/>
        <path d="M479.6081,720.77309c-.92975-1.43043-1.8494-2.82216-2.74382-4.27681-5.185,3.414-5.95539,3.84878-10.6848,6.69314.15938-.27538,2.76467-6.53811,2.88707-6.832-1.83392-2.24652-3.4772-4.301-5.24959-6.715,1.61873-9.43965,3.21425-18.74344,4.83734-28.209-1.75659-.28917-.3292-.033-5.17428-.95663l-4.2405,21.11137c-.85408-.15634-1.6974-.36314-2.54813-.536l4.50815-21.05519c-4.33734-.94489-2.19507-.47544-5.12652-1.17857-.97346,3.97619-6.41638,26.21064-6.81049,27.82065-2.07267,1.17586-3.09588,1.78853-7.47358,4.05824-.0501,2.46374-.06356,4.93249-.07734,7.40633-4.16282-5.72642-6.96281-10.04961-7.16556-10.38993-.1456.09786-3.92576,2.63725-4.21091,2.82889,13.49823,21.05018,11.30015,12.40137,11.58058,21.69174,6.099,1.54577,12.2699,2.79729,18.47345,3.83059C464.30754,727.72413,459.11544,734.55445,479.6081,720.77309Z" transform="translate(-129.5 -129.5)" style="fill: #ffbe51;stroke: #000;stroke-miterlimit: 10"/>
      </g>
      <g>
        <path d="M391.172,721.77549a12.5856,12.5856,0,0,0-8.22477,6.79568c-4.99135,11.33378,9.49345,22.7126,20.7751,18.10861C419.12545,740.33,407.89054,717.0454,391.172,721.77549Z" transform="translate(-129.5 -129.5)" style="fill: #ffbe51;stroke: #000"/>
        <path d="M436.09047,711.63c-1.81174-4.64906-1.29424-3.3854-1.81073-4.73378-1.16008.4637-7.61817,3.08949-12.63743,4.68871,5.28657-8.21232,9.77557-15.4105,14.8019-24.15211,0,0-4.143-1.43179-9.46119-3.49672l5.05625-12.74165L428.17,669.60936l-5.3572,12.6176c-5.60737-2.45163-3.71829-1.616-5.35787-2.38169l5.721-12.45284c-2.71862-1.26969-3.05822-1.4173-3.7815-1.78885l-6.01054,12.31731q-4.52631-2.2092-8.93863-4.64738c-2.728,8.52267-5.35854,17.53363-7.89659,27.25975-1.23035-2.84774-2.80469-6.37536-5.07642-12.55337-1.55114.63351-3.12817,1.233-4.70856,1.85646,4.39248,11.92793,7.756,18.75255,7.756,18.75255-.52322,2.1806-1.04945,4.36358-1.54441,6.55728q9.91158,4.94141,20.25592,8.94972C419.77442,714.62636,412.51572,721.64837,436.09047,711.63Z" transform="translate(-129.5 -129.5)" style="fill: #ffbe51;stroke: #000"/>
      </g>
    </g>
    <g>
      <g>
        <path d="M357.53384,719.64833c7.99174-4.1423,8.59027-15.62537.14727-22.27714-13.93267-10.84821-29.85429,4.59558-18.45361,17.89948C343.66136,720.24819,351.25665,722.90866,357.53384,719.64833Z" transform="translate(-129.5 -129.5)" style="fill: #ffbe51;stroke: #000;stroke-miterlimit: 10"/>
        <path d="M391.5829,693.43634c-.265-1.684-.53263-3.3343-.75522-5.026-5.70287.91964-5.7069.91964-12.49049,1.74751.25488-.1836,5.19983-4.84206,5.42949-5.05825-.68494-2.52256-1.49633-5.7274-2.0498-8.27151,5.33466-7.95409,10.59267-15.79383,15.94179-23.76976-.79053-.51916.23538.17888-4.339-2.99131l-12.49385,17.538q-1.0476-.77523-2.10528-1.53666l12.71308-17.37893c-1.43009-1.02222-2.81545-2.105-4.21192-3.1722-2.51114,3.23275-16.55378,21.31041-17.5706,22.61947-2.86556.28314-5.60771.48184-8.48638.65941-1.04743,2.22633-2.06393,4.47182-3.08311,6.722-1.13789-5.27112-1.73911-8.83138-2.30536-12.41619,0,0-4.61676.82787-5.01186.88267,3.73982,24.61142,5.24725,15.99291,1.73137,24.52633q7.425,5.816,15.29652,11.0298C374.784,693.51974,366.80638,697.70642,391.5829,693.43634Z" transform="translate(-129.5 -129.5)" style="fill: #ffbe51;stroke: #000;stroke-miterlimit: 10"/>
      </g>
      <g>
        <path d="M314.66384,659.63241c-12.79513-6.2755-24.41808,7.77184-14.8103,20.10126,2.90893,3.54211,7.19348,6.27147,11.91751,6.43356C325.577,686.67124,328.93983,666.59522,314.66384,659.63241Z" transform="translate(-129.5 -129.5)" style="fill: #ffbe51;stroke: #000"/>
        <path d="M355.5792,667.32355c-.00235-.16106.2179-3.99334.28447-5.074-4.87265-.15233-8.53479-.4062-13.45149-.86518,7.3922-4.82019,14.92294-9.89663,23.35618-16.04065-.33591-.33691-3.50074-3.226-7.23786-7.05324l9.7981-9.58693c-2.47112-2.52424-1.26364-1.28718-2.8975-3.03133l-10.02035,9.35423c-2.45668-2.64028-1.5572-1.648-3.94459-4.35147l10.2823-9.05936c-.94184-1.0333-1.82956-2.11336-2.73441-3.17861l-10.4901,8.82026c-2.38808-2.74618-6.03744-7.54083-6.29837-7.87709-6.258,7.04319-12.37145,14.3086-18.26026,21.716.00168-6.46279.29086-10.91044.44823-13.5359-1.42336-.03633-3.55118-.12544-5.07038-.20142-.73808,10.08864-.5037,20.2815-.5037,20.2815-1.36619,1.78417-2.74383,3.575-4.08347,5.377q7.0457,8.53864,14.87486,16.38766C338.98407,663.71621,330.08074,666.55418,355.5792,667.32355Z" transform="translate(-129.5 -129.5)" style="fill: #ffbe51;stroke: #000"/>
      </g>
    </g>
    <g>
      <g>
        <path d="M280.54988,642.77c10.58964-.67185,15.39773-14.50969,6.42178-24.04584-11.79007-12.08162-28.07854.91123-20.15035,15.57058C269.68149,639.51066,274.77977,643.13984,280.54988,642.77Z" transform="translate(-129.5 -129.5)" style="fill: #ffbe51;stroke: #000;stroke-miterlimit: 10"/>
        <path d="M322.2847,632.608q.67082-2.47849,1.36284-4.914c-5.412-1.379-8.70394-2.39749-12.11926-3.46811.30431-.06321,6.69851-2.30805,6.99139-2.41128.96807-5.96379,1.18126-6.87137,1.48893-8.401,8.09935-5.11141,16.08235-10.14914,24.20388-15.27467-2.98459-4.78353-1.458-2.36219-2.74551-4.49506l-18.52759,10.97262q-.65619-1.12526-1.32753-2.2418L340.276,591.63747c-2.21726-3.9846-2.21491-3.94626-2.55016-4.60736-3.606,1.93748-23.77045,12.77161-25.2308,13.55606-2.64968-.89412-5.36829-1.81747-8.01057-2.84269-1.86823,1.614-3.71628,3.25828-5.568,4.90593,1.94287-8.95981,2.08007-8.83269,2.9365-12.28537-2.96845-.7317-1.7085-.41461-4.91872-1.23538-6.92111,24.22206-1.22464,16.2962-8.368,23.12217,2.96172,5.54819,6.11141,10.99717,9.49984,16.29554C306.582,625.98449,298.44867,626.4899,322.2847,632.608Z" transform="translate(-129.5 -129.5)" style="fill: #ffbe51;stroke: #000;stroke-miterlimit: 10"/>
      </g>
      <g>
        <path d="M268.03116,574.13651a14.6184,14.6184,0,0,0-10.04491-8.40129c-15.46835-3.60968-20.28418,20.79593-5.70758,27.81289C263.10268,598.76879,273.77706,586.585,268.03116,574.13651Z" transform="translate(-129.5 -129.5)" style="fill: #ffbe51;stroke: #000"/>
        <path d="M299.97594,594.13454c.073-.14325,1.79728-3.52865,2.29762-4.51086-5.24959-2.54173-8.16659-4.1487-11.93667-6.253,13.70705-2.191,21.92543-3.93654,27.86333-5.17631,0,0-.94118-2.0683-3.74419-9.36667l12.85028-4.77345c-.25556-.64359-.35139-.94018-1.40588-3.93652l-12.95989,4.46647c-.38737-1.05718-.608-1.76769-1.83594-5.56635l13.08095-4.08515-1.19472-4.00612-13.17442,3.77815c-1.262-4.35313-2.10024-8.00419-2.53367-9.7443-8.96285,4.04379-17.7996,8.35221-25.52974,12.36944,2.09352-4.85247,5.5761-11.47433,5.93757-12.17272-1.76567-.84232-2.4839-1.21591-4.53573-2.2556-4.90795,9.14207-8.73957,18.31036-8.73957,18.31036-1.97414,1.07165-3.952,2.14294-5.91705,3.24418q2.96776,10.67268,6.91909,21.0394C285.88354,584.1431,276.6981,582.85021,299.97594,594.13454Z" transform="translate(-129.5 -129.5)" style="fill: #ffbe51;stroke: #000"/>
      </g>
    </g>
    <g>
      <g>
        <path d="M234.26724,534.57793c8.16928,15.47878,28.787,4.33364,22.86526-12.78235-5.88747-16.02114-25.92786-10.3657-24.75635,5.97524A19.16231,19.16231,0,0,0,234.26724,534.57793Z" transform="translate(-129.5 -129.5)" style="fill: #ffbe51;stroke: #000;stroke-miterlimit: 10"/>
        <path d="M283.6989,548.8916q1.617-1.98676,3.23543-3.92508c-4.55389-3.5764-8.74966-7.33169-9.639-8.11617.30834.06725,7.05763.62912,7.372.65535,3.147-4.81111,3.77714-5.636,4.78859-7.05729l28.33275-4.04849c-.64292-4.58683-.3218-2.31611-.67049-5.225L295.724,523.61709l-.29691-2.58916,21.42239-2.17254c-.50807-5.874-.37189-4.04042-.44721-5.25665-4.0828.29558-26.91376,1.94859-28.56712,2.0683-3.78823-3.495-5.42243-5.14536-6.1521-5.86965-2.36185.71118-4.73546,1.45935-7.0815,2.20651,3.335-4.66317,6.869-8.99479,7.69719-10.02406l-4.00142-3.13389c-16.05646,19.02188-7.5025,14.29315-17.0669,17.695.543,7.76243,1.10661,12.24973,2.01652,18.75019C271.95457,536.40783,264.21131,533.33245,283.6989,548.8916Z" transform="translate(-129.5 -129.5)" style="fill: #ffbe51;stroke: #000;stroke-miterlimit: 10"/>
      </g>
      <g>
        <path d="M257.339,469.12041c-2.90961-10.212-15.15025-13.51773-21.92779-4.50581-5.37737,7.17567-3.86389,19.94927,4.8471,23.43823C251.17778,492.42752,260.62685,479.96864,257.339,469.12041Z" transform="translate(-129.5 -129.5)" style="fill: #ffbe51;stroke: #000"/>
        <path d="M279.03674,504.66008c.12542-.10122,3.09051-2.492,3.951-3.18567-4.48192-5.28019-7.62892-9.596-8.3596-10.57418,8.77454,2.33662,17.65938,4.51926,27.55533,6.61109.01815-.33658.03194-4.57641.39005-10.1098l13.68149.85476c.24547-3.95872.13887-2.13588.30936-4.18333l-13.65728-1.17487c.35038-4.00882.21789-2.63657.59113-5.84141l13.61391,1.568c.2885-2.55655.16812-1.609.52758-4.15509l-13.57558-1.88369c.77406-5.61107,1.38-8.60808,1.63454-9.94134-9.16225.06087-18.23437.35037-28.35965.9701,3.51486-3.15238,6.7883-5.91942,10.35191-8.7268-1.08778-1.27776-2.15169-2.59117-3.23913-3.90054-9.83105,7.81386-15.41455,13.201-15.41455,13.201-2.24482.17923-4.47116.35945-6.70994.571-1.08038,7.30277-1.83494,14.65462-2.2139,22.02261C270.14316,489.77648,262.142,484.46805,279.03674,504.66008Z" transform="translate(-129.5 -129.5)" style="fill: #ffbe51;stroke: #000"/>
      </g>
    </g>
    <g>
      <g>
        <path d="M247.04354,432.461c6.28828,6.183,16.35336,3.16919,20.28989-4.64836,8.8354-17.11734-12.06614-30.13474-21.79968-14.13846C242.1302,419.47155,242.03537,427.54264,247.04354,432.461Z" transform="translate(-129.5 -129.5)" style="fill: #ffbe51;stroke: #000;stroke-miterlimit: 10"/>
        <path d="M282.52941,456.68608c2.26635-1.16309,1.46169-.76094,4.55052-2.27778-3.3084-6.36528-5.5418-11.32771-5.5418-11.32771.27237.20006,6.18976,3.42575,6.48634,3.58749,2.86926-1.88906,6.30879-3.97721,7.22407-4.51455,9.21706,2.6026,18.30162,5.16789,27.54389,7.77755.118-.42569,1.36553-4.61879,1.501-5.0391l-20.5478-6.4396q.41057-1.23575.80466-2.47618l20.46339,6.70053c.52321-1.67353,1.13049-3.31849,1.70649-4.97421-3.85145-1.38672-25.38884-9.14174-26.94839-9.70327-.957-2.12681-2.39681-5.69278-3.25426-7.8623-2.44087-.30766-4.89048-.5797-7.34546-.85274,5.484-3.18971,9.16728-5.04953,11.094-6.0287-.08272-.15534-2.228-4.18973-2.38976-4.49438-22.80574,11.53619-13.71074,9.92487-22.78926,9.23286q-3.22653,8.869-5.74859,17.97242C277.376,440.83138,270.96194,434.986,282.52941,456.68608Z" transform="translate(-129.5 -129.5)" style="fill: #ffbe51;stroke: #000;stroke-miterlimit: 10"/>
      </g>
      <g>
        <path d="M290.89271,373.0712c2.59487-17.78951-22.874-21.05924-26.4514-.86081a12.79357,12.79357,0,0,0,3.12111,11.18111C275.67992,391.79045,289.41085,384.409,290.89271,373.0712Z" transform="translate(-129.5 -129.5)" style="fill: #ffbe51;stroke: #000"/>
        <path d="M296.1914,414.37224c1.10964-.30766,2.36555-.63183,4.91267-1.29592-1.34-4.67662-2.2872-8.30783-3.32992-13.05943,6.82965,5.50817,13.85466,11.02407,22.46545,17.26394.52456-1.02155,1.18529-2.74922,4.47117-9.04657l12.14011,6.367c.651-1.23371,1.28886-2.47449,1.98692-3.68331l-11.98544-6.65212c1.75357-3.14665,1.08644-1.98692,2.9244-5.08617l11.78435,6.99475c1.21051-2.02762.24479-.48352,2.17993-3.57571l-11.61992-7.26745c3.16448-5.04751,4.77178-7.28024,5.55659-8.41139-8.99008-3.95-17.43-7.36866-26.27992-10.69858,1.74482-.55516,5.74692-1.88235,13.01706-3.73611-.47277-1.61234-.91932-3.2546-1.37124-4.88914-10.594,2.64868-19.453,5.75936-19.453,5.75936-2.12243-.75423-4.24352-1.50978-6.36595-2.227-3.96813,6.22406-7.65952,12.62835-11.0224,19.20178C294.5293,397.50441,289.01742,389.90945,296.1914,414.37224Z" transform="translate(-129.5 -129.5)" style="fill: #ffbe51;stroke: #000"/>
      </g>
    </g>
    <g>
      <g>
        <path d="M305.48781,342.61c6.62218.97245,12.6344-2.57772,15.811-8.46721,7.12353-13.206-6.29972-24.99408-18.58408-16.45357C291.86281,325.15369,293.94052,340.93543,305.48781,342.61Z" transform="translate(-129.5 -129.5)" style="fill: #ffbe51;stroke: #000;stroke-miterlimit: 10"/>
        <path d="M318.9588,372.01268c1.69607-.09213,3.4076-.15569,5.09256-.21587-.22259-3.66013-.38467-6.98635-.42838-12.59977.15467.27136,4.2526,5.66016,4.44158,5.90865,2.52224-.38535,5.91841-.887,8.45409-1.16681,7.35522,6.134,14.60452,12.18012,21.97991,18.33087,1.14394-1.33526,2.25425-2.69877,3.43786-3.9994l-16.14254-14.25111q.87106-.96992,1.72936-1.95094l15.962,14.45185c.27471-.30531,3.26267-3.51721,3.59926-3.85717-2.954-2.83361-19.4738-18.67957-20.66986-19.82686.05952-5.38006.20545-7.80378.23841-8.49747-2.11067-1.27878-4.24957-2.534-6.38243-3.78286,5.90529-.6335,9.13737-.79726,12.59439-.99767,0,0-.08944-1.02859-.34432-5.062-25.19011,1.14461-16.34394,3.61439-24.57476-.8302q-6.54889,6.78441-12.57758,14.04834C320.62226,355.28741,317.35185,347.63629,318.9588,372.01268Z" transform="translate(-129.5 -129.5)" style="fill: #ffbe51;stroke: #000;stroke-miterlimit: 10"/>
      </g>
      <g>
        <path d="M350.29161,306.39712c6.93893-1.646,13.10616-8.01158,12.39835-16.17145-.89746-10.2618-14.11291-14.86881-23.63831-5.48867C328.52657,295.44466,337.398,309.47216,350.29161,306.39712Z" transform="translate(-129.5 -129.5)" style="fill: #ffbe51;stroke: #000"/>
        <path d="M348.69709,338.93539c.15871.02522,3.91366.62173,5.00278.7949.83324-6.143,1.66547-10.27322,2.25963-13.28774,4.30506,8.41307,8.79808,16.74679,13.53152,24.90228,0,0,1.58107-1.456,7.76276-6.46919l8.5163,10.74163c.4842-.40216.66308-.5296,3.31647-2.56326l-8.26142-10.93867c.72665-.5723,1.25927-.954,4.73143-3.4762l7.94,11.16935,3.44391-2.38707-7.68-11.35159c3.00106-1.97919,4.46041-2.97753,8.4894-5.43588-6.175-6.77317-13.03253-13.88459-19.69405-20.42877,6.01759.63417,10.10275,1.32216,13.41552,1.85949.21218-1.6806.49194-3.32354.73841-5.00514-10.99717-1.90454-20.12042-2.6211-20.12042-2.6211-1.63083-1.54307-3.26233-3.08983-4.91839-4.61508q-9.22108,6.12822-17.84936,13.08867C353.96485,322.6903,352.07745,313.82967,348.69709,338.93539Z" transform="translate(-129.5 -129.5)" style="fill: #ffbe51;stroke: #000"/>
      </g>
    </g>
    <g>
      <g>
        <path d="M387.89117,255.643c-12.72452,7.93021-6.758,25.04082,7.78562,23.61914,16.0309-1.65673,20.23609-23.12922,4.26873-26.131A16.46066,16.46066,0,0,0,387.89117,255.643Z" transform="translate(-129.5 -129.5)" style="fill: #ffbe51;stroke: #000;stroke-miterlimit: 10"/>
        <path d="M386.68671,309.44022q2.38775.91443,4.73075,1.845c1.76769-4.872,4.06733-10.15654,4.71933-11.6828.03193.31372,1.60125,6.91237,1.67388,7.219,1.837.48925,4.91367,1.30634,8.19382,2.35277,4.23511,8.59027,8.40937,17.05681,12.65625,25.67029,1.56156-.80129,3.1655-1.5118,4.74959-2.26434l-8.96957-19.576c.78448-.37189,1.58208-.71454,2.37564-1.06659l8.72006,19.68765c4.69444-2.05149,2.38707-1.03633,4.84206-2.05653-1.54811-3.78957-10.20463-24.98063-10.8314-26.51495,1.14428-2.51754,1.58611-3.52932,3.6645-7.674-1.40689-2.02324-2.8464-4.02933-4.28859-6.03979,6.74661,2.19472,11.54428,4.04547,11.90272,4.19914.06052-.16477,1.62747-4.44024,1.74583-4.7627-23.29364-9.10777-16.4297-3.3965-22.11441-10.75138-5.65713,2.31073-11.47062,4.83667-17.20106,7.75031C394.92324,294.51458,395.36475,286.07461,386.68671,309.44022Z" transform="translate(-129.5 -129.5)" style="fill: #ffbe51;stroke: #000;stroke-miterlimit: 10"/>
      </g>
      <g>
        <path d="M454.421,259.70357c7.48634-5.12652,8.6313-15.581.62542-20.7862-7.39791-4.76774-18.19132-1.54979-22.16685,4.98127C425.248,256.28925,442.03912,268.2081,454.421,259.70357Z" transform="translate(-129.5 -129.5)" style="fill: #ffbe51;stroke: #000"/>
        <path d="M427.27456,291.2768c4.22872,2.72029,3.036,1.97885,4.24621,2.767.66075-1.04776,4.35987-6.99307,7.47222-11.21844.54642,9.73791,1.13823,18.17318,2.20987,28.24061,0,0,4.13592-1.25624,9.71-2.729l3.39314,13.28168,4.0616-.99161-3.07638-13.358c4.648-1.01212,4.89047-1.074,5.73515-1.21926l2.68533,13.43839c1.37125-.2532,2.73644-.538,4.11105-.77574l-2.37127-13.49891c.34533-.0575,7.07681-1.20581,9.96589-1.4923-2.7714-8.31992-5.563-16.30192-9.62526-26.69989,4.92545,2.89515,7.09763,4.29295,11.48474,7.182.881-1.44421,1.80769-2.83125,2.7203-4.26437-9.25336-6.22641-17.2932-10.61755-17.2932-10.61755-.8578-2.07334-1.71456-4.15038-2.6026-6.21767q-10.92288,1.82486-21.65,4.65611C438.71862,279.25707,440.45066,269.35439,427.27456,291.2768Z" transform="translate(-129.5 -129.5)" style="fill: #ffbe51;stroke: #000"/>
      </g>
    </g>
    <g>
      <g>
        <path d="M493.35247,232.18086c-16.49593,6.50483-6.95171,28.33376,10.33039,24.06669,16.07393-3.9688,13.53119-24.53442-3.382-25.24022A19.19031,19.19031,0,0,0,493.35247,232.18086Z" transform="translate(-129.5 -129.5)" style="fill: #ffbe51;stroke: #000;stroke-miterlimit: 10"/>
        <path d="M473.98155,279.85593q1.8057,1.80922,3.56363,3.61439c4.13255-4.20889,7.54149-7.30881,9.08222-8.7315-.09786.29624-1.3625,6.96382-1.42034,7.27048,3.6191,2.93718,4.25058,3.49469,6.52434,5.49439.3618,9.57045.71823,19.00338,1.08106,28.60006,3.13254-.10255.71118-.07128,5.28557-.1271l-.21485-21.532c.87023.00034,1.74011-.0316,2.61033-.02118l-.05212,21.53234c4.26806.06154,4.419.04876,5.28893.09483.12643-4.09154.8329-26.97159.884-28.62831,4.1329-3.65,5.55726-4.76775,6.47221-5.51692-.464-2.42574-.96472-4.84878-1.46573-7.27687,5.19075,4.718,5.82191,5.37266,9.176,8.68947,0,0,1.11031-1.18059,3.5283-3.65071-17.75319-18.07028-13.59742-9.57751-15.84159-18.79995-6.27988-.21049-12.56547-.227-18.844.06927C487.54469,269.81271,491.8336,261.6683,473.98155,279.85593Z" transform="translate(-129.5 -129.5)" style="fill: #ffbe51;stroke: #000;stroke-miterlimit: 10"/>
      </g>
      <g>
        <path d="M556.08029,261.92756c8.87743-1.55182,14.22755-10.817,8.99074-18.74884-4.92007-7.44735-16.06687-8.68174-22.28656-4.4093C531.11108,246.65592,540.65733,264.50561,556.08029,261.92756Z" transform="translate(-129.5 -129.5)" style="fill: #ffbe51;stroke: #000"/>
        <path d="M518.46827,279.80214c.08776.13483,2.15943,3.32588,2.76031,4.25159,3.66685-2.49433,7.4618-4.92343,11.37949-7.21836-5.08885,13.34591-7.64877,21.3037-9.42822,26.72276.43813.077,3.33867.32449,9.99345,1.43513L530.89653,318.511c2.05013.35206.19436-.01277,4.11675.74481l2.59655-13.4599c2.835.539,1.55349.2727,5.74053,1.19336l-2.98661,13.3745c1.3672.27539,2.71289.64056,4.06934.961l3.29864-13.30254c2.89884.66175,8.04892,2.18363,9.70765,2.66717.90789-9.15485,1.5861-18.44991,2.01921-28.30013,2.87227,3.95367,5.00413,7.15952,7.58723,11.21541,1.3857-.94857,2.81108-1.88974,4.222-2.81814-5.21832-8.43963-11.51-16.70441-11.51-16.70441.0565-2.24752.117-4.50244.14222-6.75332q-10.73019-2.75493-21.685-4.49336C534.1747,272.54678,539.91521,265.29211,518.46827,279.80214Z" transform="translate(-129.5 -129.5)" style="fill: #ffbe51;stroke: #000"/>
      </g>
    </g>
    <g>
      <g>
        <path d="M599.38842,252.85375c-14.37518,2.71256-12.9152,22.97487,3.15976,25.93223,14.582,2.7519,21.95871-13.66838,9.91379-22.756A17.142,17.142,0,0,0,599.38842,252.85375Z" transform="translate(-129.5 -129.5)" style="fill: #ffbe51;stroke: #000;stroke-miterlimit: 10"/>
        <path d="M565.80507,288.269c.60962,1.5962,1.20379,3.19307,1.78214,4.77783,4.62852-1.8356,8.24427-3.10664,11.84521-4.31009-.21016.231-4.06563,5.79567-4.24352,6.05256,1.15538,2.29662,2.649,5.30273,3.722,7.67634-3.55891,8.89156-7.06671,17.65535-10.63571,26.57111,1.61773.67587,3.25528,1.30366,4.85282,2.028l8.56741-19.75525q1.18984.52909,2.38641,1.04273l-8.81726,19.64428c.40853.17754,4.36961,2.02828,4.76941,2.224,1.78417-3.68433,11.76149-24.28626,12.48407-25.77789,2.73006-.85072,5.37132-1.64192,8.15383-2.39345.56525-2.39984,1.10559-4.832,1.62947-7.23349,1.74046,3.81177,3.31681,7.77553,4.82761,11.673,0,0,1.48963-.61938,4.71125-1.88941-8.73689-23.34913-8.46315-14.49153-6.78459-23.63629q-8.47967-4.13692-17.25653-7.62791C582.297,284.57425,589.0661,279.04321,565.80507,288.269Z" transform="translate(-129.5 -129.5)" style="fill: #ffbe51;stroke: #000;stroke-miterlimit: 10"/>
      </g>
      <g>
        <path d="M657.09091,304.65835c7.09832-2.998,9.4094-11.90338,4.0495-19.15134-4.15072-5.67092-14.08736-9.7221-20.881-4.4224C628.15462,290.54443,642.17068,310.94731,657.09091,304.65835Z" transform="translate(-129.5 -129.5)" style="fill: #ffbe51;stroke: #000"/>
        <path d="M606.44067,306.32718c.02488.159.611,3.918.78112,5.0085,4.30238-.82652,9.11046-1.43177,13.33682-1.94019-7.84076,7.84346-12.77867,13.11928-19.52759,20.53738.343.22025,2.92945,1.69942,8.53716,5.39351l-7.602,11.40741c1.08105.70782.35341.21116,3.45769,2.36588l7.86834-11.22482c1.43951.99531.5545.35543,4.76235,3.43315l-8.18678,10.98979,3.3306,2.54544,8.43963-10.79878c3.05556,2.37058,5.90226,4.80641,7.79439,6.40227,4.76235-8.35893,9.39963-17.06353,13.37179-25.01862,1.00675,4.47251,1.86487,10.11384,2.36051,13.33717,1.66916-.32011,3.31882-.56053,4.9927-.841-1.50912-10.82-3.69879-19.9496-3.69879-19.9496.96739-2.02727,1.93818-4.0559,2.88069-6.10166q-8.66627-6.88733-17.9452-12.95787C623.0822,306.74783,632.21014,301.543,606.44067,306.32718Z" transform="translate(-129.5 -129.5)" style="fill: #ffbe51;stroke: #000"/>
      </g>
    </g>
    <g>
      <g>
        <path d="M680.17877,336.56278c4.95,5.89856,14.31968,8.54084,20.4254,2.28317,5.14938-5.04886,4.14534-14.18689-1.6167-19.79761C685.15366,305.8497,668.3729,322.97678,680.17877,336.56278Z" transform="translate(-129.5 -129.5)" style="fill: #ffbe51;stroke: #000;stroke-miterlimit: 10"/>
        <path d="M646.1916,333.4q-.13668,2.5557-.30263,5.07373c4.52362.16275,8.85354.55113,12.57118.89041-.28717.12677-6.08184,3.652-6.35016,3.81514.17149,3.33967.25621,5.02463.28885,8.523-6.8653,6.678-13.63208,13.25982-20.51584,19.956,1.24314,1.24448,2.42508,2.54645,3.6275,3.82926L651.36183,360.913c1.08544,1.17689.686.7364,1.75154,1.93111L637.08114,377.2179c3.57574,4.03437,1.86048,2.1147,3.46105,3.98091,3.12513-2.64363,20.60228-17.42736,21.86758-18.49766,2.74553.31071,3.89011.4257,8.43393,1.114,1.4886-1.96406,2.95064-3.95367,4.416-5.947,0,7.30579-.27706,12.27092-.30731,12.62095.17551.0064,4.72906.17015,5.07274.18259,1.42571-25.09058-1.84771-16.693,3.377-24.35285-4.92243-5.82224-7.79032-8.95814-12.67474-13.95991C662.27292,336.99958,672.0125,334.285,646.1916,333.4Z" transform="translate(-129.5 -129.5)" style="fill: #ffbe51;stroke: #000;stroke-miterlimit: 10"/>
      </g>
      <g>
        <path d="M714.44743,382.40729c4.23814,3.18,10.00523,4.11071,14.51946,1.46909,10.628-6.21834,5.72337-23.93723-6.1854-26.8455C708.721,353.669,702.41055,373.21714,714.44743,382.40729Z" transform="translate(-129.5 -129.5)" style="fill: #ffbe51;stroke: #000"/>
        <path d="M676.00384,366.40967c-1.19606,4.562-.96538,3.58918-1.31608,4.89654q6.47672,1.57467,12.98242,3.62784c-8.2846,3.22635-16.36647,6.47053-26.16458,10.859.21451.33626,4.25194,6.15042,5.61444,8.39592l-11.57117,7.35018c1.93548,3.1016,1.9402,3.09286,2.20548,3.55991l11.741-7.07478c2.52929,4.27244,1.90859,3.19911,2.94624,5.07408l-11.93766,6.72978c.67485,1.22128,1.38031,2.42608,2.01383,3.66954l12.09237-6.4507c1.37728,2.61876,1.64092,2.98157,4.51455,9.00489,7.62219-5.60233,15.048-11.40572,22.38276-17.44518-.94083,4.46815-2.05082,8.85088-3.25225,13.14417,1.62984.39577,3.26132.83426,4.9093,1.25523,7.16792-25.73922,1.846-17.122,9.81321-24.14134q-5.128-9.81574-11.14949-19.12712C691.09088,373.52615,700.00227,371.92727,676.00384,366.40967Z" transform="translate(-129.5 -129.5)" style="fill: #ffbe51;stroke: #000"/>
      </g>
    </g>
    <g>
      <g>
        <path d="M750.18683,408.49622c-11.824-8.72982-25.677,5.67865-17.153,19.71086,7.64271,12.61357,24.77889,7.29436,23.54585-7.86767A17.29642,17.29642,0,0,0,750.18683,408.49622Z" transform="translate(-129.5 -129.5)" style="fill: #ffbe51;stroke: #000;stroke-miterlimit: 10"/>
        <path d="M701.37183,407.26519c-1.41192,2.77645-.91427,1.81543-2.34167,4.51521,2.23913,1.12476,5.50213,2.72,11.13841,5.91235-.32181-.00168-7.03913.86654-7.35789.90754-1.4526,3.83026-2.98963,7.42952-3.19442,7.89727-8.98772,3.30839-17.84665,6.56905-26.85892,9.88652.15938.424,1.61132,4.54784,1.74616,4.95975l20.41129-6.85959q.39342,1.24128.80332,2.47651l-20.49634,6.599c.55951,1.66177,1.03467,3.34942,1.54073,5.02767,3.93148-1.14023,25.91642-7.51662,27.50824-7.97829,2.07434,1.18832,5.32826,3.227,7.2513,4.451,2.15638-1.18462,4.29869-2.40387,6.446-3.62515-2.08747,4.72-3.69206,7.9914-5.43621,11.39564.158.07734,4.26166,2.08242,4.57136,2.23374,11.61085-22.763,5.50615-16.23266,13.02142-20.85984-1.73172-6.04921-3.71394-12.02477-5.90563-17.92165C714.823,417.07069,723.68329,418.13392,701.37183,407.26519Z" transform="translate(-129.5 -129.5)" style="fill: #ffbe51;stroke: #000;stroke-miterlimit: 10"/>
      </g>
      <g>
        <path d="M742.224,475.76816a15.00964,15.00964,0,0,0,4.15137,7.61279c9.86436,9.57416,24.37639-.22328,20.50442-15.002C761.93622,449.83189,738.24679,457.16122,742.224,475.76816Z" transform="translate(-129.5 -129.5)" style="fill: #ffbe51;stroke: #000"/>
        <path d="M715.172,449.534c-.08641.13014-2.52055,3.09959-3.21293,3.9345,1.6917,1.32517,4.84375,3.72133,10.36739,8.61246-9.95343-.49262-18.151-.78212-28.321-.77473.04741.44318.70514,3.2741,1.69642,9.94873l-13.5648,1.97918c.40957,2.921.47848,3.34.55885,4.15l13.6072-1.6584c.21016,1.94521.48119,3.88407.61771,5.838l-13.64554,1.26465c.31877,3.57169.25757,2.81914.34131,4.18031l13.67242-.94924c.2411,3.35547.38333,6.71969.44991,10.08728,9.38452-2.04913,18.52253-4.32254,27.55261-6.80577-3.04175,4.12381-4.2906,5.74523-8.32059,10.68178,1.33491,1.07064,2.6537,2.16279,3.99469,3.22534,9.40571-11.8331,12.31866-16.17684,12.31866-16.17684,2.14966-.63685,4.303-1.2717,6.4497-1.93918q-.67135-11.046-2.3521-22.00915C726.255,462.21108,735.49354,465.15531,715.172,449.534Z" transform="translate(-129.5 -129.5)" style="fill: #ffbe51;stroke: #000"/>
      </g>
    </g>
  </g>
  <circle cx="370.5" cy="370.5" r="135" style="stroke: #000;stroke-miterlimit: 5;fill: url(#a)"/>
  <path d="M746.91209,668.2033a1.5009,1.5009,0,0,0,0-3,1.5009,1.5009,0,0,0,0,3Z" transform="translate(-129.5 -129.5)" style="fill: #2e5eaa"/>
  <path d="M745.81319,668.2033a1.5009,1.5009,0,0,0,0-3,1.5009,1.5009,0,0,0,0,3Z" transform="translate(-129.5 -129.5)" style="fill: #2e5eaa"/>
  <g>
    <path d="M412.57275,568.90918l2.10059.61133c-1.82666,3.08008-1.52686,6.80078,1.71143,10.22656,3.29443,3.48633,6.74365,3.55469,9.12744,1.30273,2.50244-2.36523,1.373-5.47167-.627-9.61718-2.16162-4.55567-4.13525-8.61426-.50048-12.04883,3.42724-3.23828,8.22021-2.52246,11.57128,1.02344a9.63447,9.63447,0,0,1,1.95557,10.84375l-2.01221-.6377a7.54361,7.54361,0,0,0-1.46337-8.77051c-2.731-2.89062-6.147-3.10254-8.47168-.90625-2.50245,2.36524-1.27784,5.21289.55371,9.1211,2.271,4.84961,4.14941,9.166.54394,12.57226-3.45556,3.26758-8.28222,2.69532-12.19726-1.44629C411.17627,577.28027,410.52393,572.65137,412.57275,568.90918Z" transform="translate(-129.5 -129.5)"/>
    <path d="M439.90918,575.75586l1.61865,1.25879-12.58105,16.18652-1.61963-1.25879Zm3.56543-5.58887a1.64,1.64,0,1,1,.28906,2.30078A1.63629,1.63629,0,0,1,443.47461,570.167Z" transform="translate(-129.5 -129.5)"/>
    <path d="M456.98047,595.60449l-6.208,11.13477-1.82519-1.01758,6.207-11.13477c1.8374-3.29394,1.13623-6.5-2.229-8.376-3.50879-1.95606-7.54394-1.20215-10.23779,3.63183l-5.26953,9.45215-1.79-.998,9.98-17.90137,1.79.99707-1.896,3.40137a7.71793,7.71793,0,0,1,8.52393-.22168C458.28662,586.94629,459.39551,591.27246,456.98047,595.60449Z" transform="translate(-129.5 -129.5)"/>
    <path d="M460.51318,599.875a10.50136,10.50136,0,0,1,13.34961-7.249,9.59894,9.59894,0,0,1,7.1084,7.543l-1.88965.47363a7.791,7.791,0,0,0-5.7705-6.12695,8.733,8.733,0,0,0-4.896,16.76562,8.19153,8.19153,0,0,0,8.28027-2.02441l1.36524,1.46582a10.07212,10.07212,0,0,1-10.19629,2.44726A10.50059,10.50059,0,0,1,460.51318,599.875Z" transform="translate(-129.5 -129.5)"/>
    <path d="M504.09668,607.44727c-.02051.32714-.082.65234-.10254.97949l-18.53906-1.15528a8.34506,8.34506,0,0,0,8.19873,8.19336,7.80123,7.80123,0,0,0,7.313-3.28222l1.73437,1.17676a10.1054,10.1054,0,0,1-9.21045,4.06738,10.703,10.703,0,1,1,1.16846-21.374C500.87939,596.44141,504.44629,601.84082,504.09668,607.44727Zm-18.51709-2.18164,16.45264,1.02636c-.13868-5.02148-3.48487-8.02441-7.49561-8.27441A8.26416,8.26416,0,0,0,485.57959,605.26563Z" transform="translate(-129.5 -129.5)"/>
    <path d="M523.2959,585.40625l6.53223,27.9502-2.11622.49511-5.99121-25.63574-5.99218,3.54883-.94922-1.71582,6.7207-4.22266Z" transform="translate(-129.5 -129.5)"/>
    <path d="M547.5625,591.8877l-3.34375,16.625-2.26367.96484,2.55664-12.72266a11.33681,11.33681,0,0,1-2.72852,1.65332c-5.1289,2.18555-10.375.23243-12.57812-4.93554-2.18555-5.12989.03711-10.26661,5.167-12.45411,5.12988-2.18652,10.375-.23242,12.56152,4.89747A9.72784,9.72784,0,0,1,547.5625,591.8877Zm-6.59961,4.5957a7.03725,7.03725,0,0,0,3.97168-9.71582c-1.67285-3.92285-5.55566-5.60938-9.74316-3.8252a7.3601,7.3601,0,1,0,5.77148,13.541Z" transform="translate(-129.5 -129.5)"/>
    <path d="M570.4375,583.49316c3.19922,4.51661,1.46777,9.66211-2.74805,12.64747-3.3457,2.37011-7.48437,2.83984-10.73437.51953l.88867-1.93555c2.54688,1.96387,5.75977,1.74805,8.63672-.29,3.48047-2.46484,4.57617-6.30566,2.18359-9.68457-2.39355-3.37988-6.38183-3.61914-9.86133-1.15527l-6.25585,4.43164-7.15918-11.81055,12.37793-8.76758,1.18554,1.67285-10.80664,7.6543,5.0332,8.24121,4.417-3.12793C561.80957,578.90234,567.23828,578.97656,570.4375,583.49316Z" transform="translate(-129.5 -129.5)"/>
    <path d="M570.24219,554.3457l1.49609,1.40137,11.83789,26.35156-1.541,1.64649-11.83789-26.35254-10.33692,11.04687-1.49707-1.40039Z" transform="translate(-129.5 -129.5)"/>
  </g>
  <g>
    <g>
      <path d="M451.63089,494.42111c.01221.01742.01221.01742.0096.03223l.03483-.02441Z" transform="translate(-129.5 -129.5)" style="fill: #fff;stroke: #000;stroke-miterlimit: 10"/>
      <path d="M467.47119,502.01873a.41634.41634,0,0,1-.1359-.00865l-4.32456-.76113a1.197,1.197,0,0,0-1.39333.97628l-1.491,8.47139c-1.5353,8.72315-10.50763,14.76318-19.601,13.16272l-7.86417-1.38411-5.63651,8.68843a3.305,3.305,0,0,1-4.52147,1.05175c-.027-.02-.04182-.02263-.06883-.04265l-5.20664-3.81747a3.28317,3.28317,0,0,1-.14359-5.43045l12.4141-9.89278a15.98718,15.98718,0,0,1-11.389-9.63892l-4.61079-11.45392a1.08551,1.08551,0,0,1,1.22237-1.47971l8.32328,1.46492a31.6535,31.6535,0,0,0,5.04658.476c.86763.01528,1.74309-.01386,2.60895-.07523a26.96573,26.96573,0,0,1,.19491-8.13455l1.00094-5.68708a1.132,1.132,0,0,1,1.85257-.63589.38959.38959,0,0,1,.13684.17678c2.1426,5.00357,5.69856,9.00385,9.6935,10.94374l5.16162,2.51169a6.28515,6.28515,0,0,1,2.90823,2.90907c.0122.01741.0122.01741.0096.03222s.0122.01742.02441.03484l3.63559-2.872a6.954,6.954,0,0,1,11.37641,3.1169l1.75884,5.8827A1.1487,1.1487,0,0,1,467.47119,502.01873Z" transform="translate(-129.5 -129.5)" style="fill: #fff;stroke: #000;stroke-miterlimit: 10"/>
    </g>
    <path d="M468.42354,500.59838l-1.75884-5.8827a6.954,6.954,0,0,0-11.37641-3.1169l-3.63559,2.872a6.365,6.365,0,0,0-2.93963-2.99093l-5.16162-2.51169c-4.00974-1.9425-7.5509-5.94018-9.69089-10.95856a.71285.71285,0,0,0-.122-.17417,1.12727,1.12727,0,0,0-1.85257.63589l-1.00094,5.68708a26.96573,26.96573,0,0,0-.19492,8.13455c-.86586.06137-1.74131.09051-2.60895.07523a31.65338,31.65338,0,0,1-5.04657-.476l-8.32329-1.46491a1.0855,1.0855,0,0,0-1.22237,1.4797l4.6282,11.44171a16.02457,16.02457,0,0,0,11.389,9.63892L417.092,522.8804a3.28462,3.28462,0,0,0,.14359,5.43046l5.20664,3.81746c.027.02.04182.02264.06884.04266a3.285,3.285,0,0,0,4.52147-1.05175l5.6365-8.68843,7.86417,1.38411c9.0786,1.59785,18.06314-4.42476,19.59843-13.14791l1.48316-8.427a1.20656,1.20656,0,0,1,1.39334-.97628l4.32455.76113a.41634.41634,0,0,0,.1359.00865A1.133,1.133,0,0,0,468.42354,500.59838Zm-16.73341-6.16684-1.79037,1.41027-3.424,2.71072-4.5063-3.8927a11.052,11.052,0,0,0-7.08338-2.69723,11.87021,11.87021,0,0,0-2.04356.15947l-2.17768.22748" transform="translate(-129.5 -129.5)" style="fill: #fff;stroke: #000;stroke-miterlimit: 10"/>
    <path d="M461.42453,491.86952" transform="translate(-129.5 -129.5)" style="fill: #fff;stroke: #000;stroke-miterlimit: 10"/>
  </g>
  <g>
    <g>
      <path d="M533.06094,504.02485c.01417.01585.01417.01585.01333.03087l.03171-.02835Z" transform="translate(-129.5 -129.5)" style="fill: #fff;stroke: #000;stroke-miterlimit: 10"/>
      <path d="M549.6867,509.70136a.41646.41646,0,0,1-.136.00744l-4.38414-.24581a1.19694,1.19694,0,0,0-1.26848,1.13378l-.48152,8.58811c-.49583,8.84334-8.69324,15.89935-17.91194,15.38247l-7.97252-.447-4.57252,9.29253a3.305,3.305,0,0,1-4.36588,1.57764c-.02919-.0167-.0442-.01754-.07339-.03424l-5.62051-3.17679a3.28318,3.28318,0,0,1-.783-5.37563l11.16078-11.28777a15.9872,15.9872,0,0,1-12.44623-8.22852l-5.9294-10.83023a1.08551,1.08551,0,0,1,1.03933-1.61354l8.438.47311a31.65431,31.65431,0,0,0,5.06748-.12253c.86339-.08715,1.7293-.21933,2.58187-.38239a26.96588,26.96588,0,0,1-.76577-8.10076l.32326-5.76545a1.132,1.132,0,0,1,1.76465-.84992.38961.38961,0,0,1,.15674.1594c2.71773,4.716,6.72064,8.269,10.91648,9.7242l5.42181,1.88543a6.28521,6.28521,0,0,1,3.231,2.54579c.01418.01586.01418.01586.01333.03087s.01418.01586.02835.03172l3.27152-3.28069a6.954,6.954,0,0,1,11.66461,1.7535l2.44033,5.63422A1.1487,1.1487,0,0,1,549.6867,509.70136Z" transform="translate(-129.5 -129.5)" style="fill: #fff;stroke: #000;stroke-miterlimit: 10"/>
    </g>
    <path d="M550.4649,508.17861l-2.44033-5.63423a6.954,6.954,0,0,0-11.6646-1.75349l-3.27153,3.28068a6.365,6.365,0,0,0-3.27184-2.62339l-5.42181-1.88543c-4.21085-1.45607-8.19874-5.00822-10.91563-9.73921a.7131.7131,0,0,0-.14173-.15856,1.12727,1.12727,0,0,0-1.76465.84992l-.32326,5.76544a26.9656,26.9656,0,0,0,.76578,8.10077c-.85258.16306-1.71849.29524-2.58187.38239a31.65443,31.65443,0,0,1-5.06749.12253l-8.438-.47311a1.08551,1.08551,0,0,0-1.03934,1.61354l5.94526,10.816a16.02454,16.02454,0,0,0,12.44623,8.22852l-11.16079,11.28778a3.28461,3.28461,0,0,0,.783,5.37562l5.62051,3.17679c.02918.0167.0442.01755.07338.03424a3.285,3.285,0,0,0,4.36589-1.57763l4.57252-9.29253,7.97252.447c9.20368.516,17.41526-6.52411,17.91109-15.36745l.479-8.54306a1.20656,1.20656,0,0,1,1.26848-1.13379l4.38414.24581a.41619.41619,0,0,0,.136-.00744A1.133,1.133,0,0,0,550.4649,508.17861Zm-17.34391-4.1504-1.61156,1.61158-3.0804,3.0956-4.93393-3.33409a11.052,11.052,0,0,0-7.352-1.84305,11.87041,11.87041,0,0,0-2.01049.39936l-2.13566.48271" transform="translate(-129.5 -129.5)" style="fill: #fff;stroke: #000;stroke-miterlimit: 10"/>
    <path d="M542.48532,500.33608" transform="translate(-129.5 -129.5)" style="fill: #fff;stroke: #000;stroke-miterlimit: 10"/>
  </g>
  <g>
    <g>
      <path d="M561.88934,438.72008c.01319.01669.01319.01669.01143.03162l.03338-.02636Z" transform="translate(-129.5 -129.5)" style="fill: #fff;stroke: #000;stroke-miterlimit: 10"/>
      <path d="M578.13933,445.39666a.4162.4162,0,0,1-.13617-.00084l-4.36109-.51184a1.197,1.197,0,0,0-1.33505,1.05459l-1.00264,8.54295c-1.03244,8.79686-9.64357,15.34156-18.81381,14.2653L544.56,467.816l-5.12889,8.99742a3.305,3.305,0,0,1-4.45371,1.30935c-.02811-.01844-.043-.0202-.07117-.03864l-5.417-3.51255a3.28318,3.28318,0,0,1-.45482-5.41328l11.82625-10.58851A15.98721,15.98721,0,0,1,528.93754,449.6l-5.26015-11.17061a1.08551,1.08551,0,0,1,1.13549-1.54738l8.3936.98512a31.65335,31.65335,0,0,0,5.06557.18571c.86708-.0345,1.73943-.11381,2.60034-.22475a26.96578,26.96578,0,0,1-.272-8.13233l.6731-5.73513a1.132,1.132,0,0,1,1.81305-.74109.38959.38959,0,0,1,.14676.16863c2.42606,4.87244,6.2056,8.66218,10.30523,10.36975l5.29718,2.2115a6.28517,6.28517,0,0,1,3.07029,2.73748c.01319.01669.01319.01669.01143.03162s.01319.01669.02637.03338l3.46488-3.07577a6.954,6.954,0,0,1,11.53646,2.45926l2.09335,5.77214A1.1487,1.1487,0,0,1,578.13933,445.39666Z" transform="translate(-129.5 -129.5)" style="fill: #fff;stroke: #000;stroke-miterlimit: 10"/>
    </g>
    <path d="M579.00865,443.924l-2.09335-5.77213a6.954,6.954,0,0,0-11.53645-2.45926l-3.46489,3.07576a6.365,6.365,0,0,0-3.10633-2.81741l-5.29719-2.2115c-4.11456-1.70932-7.87917-5.49731-10.30347-10.38469a.71289.71289,0,0,0-.13183-.16688,1.12726,1.12726,0,0,0-1.813.74109l-.6731,5.73514a26.96513,26.96513,0,0,0,.272,8.13233c-.86092.11093-1.73326.19024-2.60035.22474a31.65323,31.65323,0,0,1-5.06556-.18571l-8.39361-.98511a1.0855,1.0855,0,0,0-1.13548,1.54738l5.27683,11.15742a16.02458,16.02458,0,0,0,11.92306,8.96983l-11.82625,10.58852a3.28461,3.28461,0,0,0,.45482,5.41327l5.417,3.51255c.02812.01845.04306.0202.07117.03864a3.285,3.285,0,0,0,4.45371-1.30935l5.12889-8.99742,7.93061.93078c9.1553,1.07451,17.77962-5.4535,18.81206-14.25036l.99738-8.49815a1.20657,1.20657,0,0,1,1.33505-1.05459l4.36109.51184a.4162.4162,0,0,0,.13617.00084A1.133,1.133,0,0,0,579.00865,443.924Zm-17.05957-5.19693-1.70653,1.51064-3.26287,2.90265-4.72215-3.62783a11.052,11.052,0,0,0-7.22642-2.28652,11.87034,11.87034,0,0,0-2.03105.27642l-2.161.352" transform="translate(-129.5 -129.5)" style="fill: #fff;stroke: #000;stroke-miterlimit: 10"/>
    <path d="M571.52051,435.611" transform="translate(-129.5 -129.5)" style="fill: #fff;stroke: #000;stroke-miterlimit: 10"/>
  </g>
  <g>
    <g>
      <path d="M484.71158,428.56355c.0134.01651.0134.01651.01185.03147l.033-.02681Z" transform="translate(-129.5 -129.5)" style="fill: #fff;stroke: #000;stroke-miterlimit: 10"/>
      <path d="M501.049,435.02312a.41647.41647,0,0,1-.13616.001l-4.36753-.45371a1.197,1.197,0,0,0-1.32088,1.07228l-.88878,8.55555c-.91519,8.80982-9.43839,15.46862-18.62215,14.51459l-7.9423-.82507-5.00862,9.06492a3.305,3.305,0,0,1-4.43587,1.36855c-.02836-.01807-.04332-.01962-.07168-.03769l-5.46332-3.44009a3.28318,3.28318,0,0,1-.52687-5.40674l11.68418-10.74508a15.98718,15.98718,0,0,1-12.04146-8.81024l-5.40845-11.09956a1.08551,1.08551,0,0,1,1.11478-1.56237l8.406.87324a31.653,31.653,0,0,0,5.06759.11823c.86655-.046,1.73776-.137,2.59712-.25935a26.96572,26.96572,0,0,1-.38025-8.128L463.901,414.08a1.132,1.132,0,0,1,1.803-.76517.38958.38958,0,0,1,.149.16666c2.49073,4.8397,6.32042,8.57877,10.44242,10.23159l5.32616,2.14076a6.2851,6.2851,0,0,1,3.10648,2.69634c.01341.01651.01341.01651.01185.03146s.01341.01652.02681.033l3.42361-3.12164a6.954,6.954,0,0,1,11.56819,2.3054l2.17,5.74374A1.1487,1.1487,0,0,1,501.049,435.02312Z" transform="translate(-129.5 -129.5)" style="fill: #fff;stroke: #000;stroke-miterlimit: 10"/>
    </g>
    <path d="M501.89867,433.539l-2.17-5.74375a6.954,6.954,0,0,0-11.56819-2.3054l-3.42361,3.12164a6.365,6.365,0,0,0-3.14358-2.77579l-5.32617-2.14076c-4.137-1.65437-7.95169-5.39188-10.44087-10.24654a.71248.71248,0,0,0-.134-.16511,1.12727,1.12727,0,0,0-1.803.76517l-.59666,5.74359a26.9654,26.9654,0,0,0,.38026,8.128c-.85937.12239-1.73057.21331-2.59712.25936a31.6541,31.6541,0,0,1-5.06759-.11824l-8.406-.87324a1.08552,1.08552,0,0,0-1.11478,1.56237l5.425,11.08615a16.02456,16.02456,0,0,0,12.04146,8.81024L452.26954,459.3918a3.28462,3.28462,0,0,0,.52688,5.40675l5.46332,3.44009c.02836.01807.04332.01962.07168.03769a3.285,3.285,0,0,0,4.43587-1.36855l5.00861-9.06493,7.9423.82507c9.1688.95248,17.70541-5.6898,18.6206-14.49963l.88412-8.51068a1.20654,1.20654,0,0,1,1.32088-1.07227l4.36752.45371a.41626.41626,0,0,0,.13617-.001A1.133,1.133,0,0,0,501.89867,433.539Zm-17.12726-4.96927-1.68627,1.53323-3.22392,2.94584-4.77005-3.56462a11.05209,11.05209,0,0,0-7.25623-2.19007,11.87123,11.87123,0,0,0-2.02718.30344l-2.15617.38076" transform="translate(-129.5 -129.5)" style="fill: #fff;stroke: #000;stroke-miterlimit: 10"/>
    <path d="M494.30049,425.32645" transform="translate(-129.5 -129.5)" style="fill: #fff;stroke: #000;stroke-miterlimit: 10"/>
  </g>
</svg>
